<svg xmlns="http://www.w3.org/2000/svg" viewBox="0 0 1372 1372"><g fill="none" stroke-width="2" style="display:inline"><path stroke="#7b5447" d="M908.2 1195q-7.1-8.3-8.9-10.8-8.5-12.1-15.6-25.1-.3-.5-.7-.6" vector-effect="non-scaling-stroke"/><path stroke="#876a44" d="M883 1158.5c0-.3 0-.7-.2-1-2.5-5.1-4.5-8.8-6-11.3-1.9-3.2-4.2-9-7-17.6-1.7-5.4-3.6-12.4-5.7-21a182 182 0 0 1-4-21.4 229.7 229.7 0 0 1 7.3-90.9c1-2.4 1.4-3.2 1.7-4.3.4-1.1.4-2 1-3.5" vector-effect="non-scaling-stroke"/><path stroke="#9c7f3f" d="M870 987.5c3-6.7 5.5-14 8.3-21" vector-effect="non-scaling-stroke"/><path stroke="#876a44" d="M878.3 966.5q4.5-7.6 8.6-15.5l1.7-3q1.7-3 2-6" vector-effect="non-scaling-stroke"/><path stroke="#9c7f3f" d="M890.7 942q1-.3 2-2a2.1 2-2.8 0 1 .6-.6q2.1-1.4 3.4-4a2.8 2.6 81.9 0 1 .5-.7l15.2-15.5q2-2 8.2-6a2 1.7-81.5 0 0 .2-.3l1.4-1.4a2 2-78 0 1 .7-.4q1.9-.8 2.7-1.9.5-.6 1-.8 3-1.3 4.7-2.8a2.4 2.4 13.3 0 1 1-.6q1.8-.6 2.2-1l2.6-1.4q14.1-6.8 32.2-7.7 40.9-1.9 67.6 25.6 7 7.4 11 15.2a102.8 102.8 0 0 1 11.5 42.1q.4 9.1 0 18.2l-1.5 13.2q-.6 5.5-1.9 13-3 17.8-3 36.3c0 9.7.6 19.6 3.3 28.2q1.6 4.8 2.2 6l5.6 11.4" vector-effect="non-scaling-stroke"/><path stroke="#7b5447" d="M1064.1 1104q1 2.5 3.8 4.8a.7.7 0 0 1 .3.8q-.2.4.2.5v-.3l8.8 9.5q5.5 5.4 11.3 8 5.7 2.6 13 4.6 11.4 3.2 21.6 1.9 16.5-2 37.4-6.5l1.7-.2q1 0 1.8-.3" vector-effect="non-scaling-stroke"/><path stroke="#f38510" d="m1164 1126.8-4 3q-8.1 7.7-14.4 11.3c-10 5.8-22.8 10.7-34.2 12.4q-17 2.5-34.7-2-16-4-29-14.4a89.2 89.2 0 0 1-30.2-42 2.8 2.8 37.8 0 1-.1-1q0-.9-.3-2a.3.3-10 0 0-.3-.3h-.1a.6.6 0 0 1-.5-.5q-.1-.7-.5-1" vector-effect="non-scaling-stroke"/><path stroke="#f4a065" d="M1015.7 1090.3q-5.5-22.5-4.6-41.3.5-10 4-32.8a142 142 0 0 0 1.7-46.5q-3.3-17.7-19-27a49 49 0 0 0-29.3-6q-10 .7-18.7 6.3-15.4 10-25 25.8-9 14.9-15.4 32-5.7 15.7-7.7 34.8-3 28.2 1.3 55.3 1.4 8.6 4 16.4" vector-effect="non-scaling-stroke"/><path stroke="#f38510" d="M907 1107.3q1.8 7.7 5.6 16.7a159 159 0 0 0 45.4 63.1q10.1 8.4 24 15.8 14.2 7.6 26.2 11.8 50 17.7 103 9.8c33.3-5 64.4-19.5 89.8-41.2 22.7-19.5 38.5-46 47.2-74.3q4.4-14.3 5.5-29.2a157 157 0 0 0-7.6-65.4q-5-13.9-11.1-26.2-1.4-2.9-3.3-4.9a.7.6-52.1 0 0-1 .1q-7.8 14.5-19.8 33.7l-10.1 15.7a3.3 3.2-2.3 0 1-.9 1q-2 1.4-2 3v18.4" vector-effect="non-scaling-stroke"/><path stroke="#7b5447" d="m1198 1055.2-.1-101.4" vector-effect="non-scaling-stroke"/><path stroke="#f26d0b" d="M1197.9 953.8q1.6-2 2.2-4.4l.3-.2a1 1-5.6 0 0 .3-.4q8.3-19 11-26.3 8.5-23.3 13.4-49.1c3.5-18.6 4.3-39.7 4.1-60.1q-.1-12.6-1.2-21a.7.7 0 0 1 1-.6q3 1.4 19.1 10.2 20.4 11.1 37.7 25.5a1 1 0 0 0 1.5-.4q.7-2.4.7-6c.4-23.7-1-45-5.3-67.5q-3-16.5-6-27.2-3.7-13.9-10.5-32.5-8.5-23-18-40.7c-1.7-3.2-2.9-6.5-4.4-9.7a.7.7-10.4 0 1 .7-1l18.5 1.5q5.7.4 26.8 5.8" vector-effect="non-scaling-stroke"/><path stroke="#f38510" d="m1289.8 649.7 32.4 10.9a.7.7-85.5 0 0 1-.8q-1.8-10-5.5-21a330.5 330.5 0 0 0-23.6-54.1q-7.4-13.3-17.7-26.9c-.8-1-1-2.2-1.9-2.8l-1.3-1.6q-5.8-8-12.5-15c-2.4-2.6-4.6-5.4-6.7-7.4q-21-21-28-27-7.3-6.6-13.8-13a.6.6 0 0 1 .3-.9q21.4-5 41.6-13.3 8.2-3.4 17-9.4 1.7-1 4.6-3.8" vector-effect="non-scaling-stroke"/><path stroke="#f4a065" d="m1275.7 463.6 12.7-10.7a.4.4 32.4 0 0-.2-.7q-19.5-5.6-38.1-15.3-5.4-2.8-12.8-7.7l-12.4-8.4q-27.7-20.2-48-47.6-18.6-25-35-44.3a261.8 261.8 0 0 0-66.5-56.6.4.4 0 0 0-.7.4q3 18.6 3.5 37.8 0 1 .8 3.5" vector-effect="non-scaling-stroke"/><path stroke="#f38510" d="M1079 314q-.5 1.1-.4 2.2 2 40.7-1.7 81.3-1.5 17.5-4.5 28.8" vector-effect="non-scaling-stroke"/><path stroke="#7b5447" d="m1072.4 426.3-34 9-1 .5a1.9 1.8-61.6 0 1-.9.3q-3.2.2-6.9 1.6a2.4 2.2-54 0 1-.6.1q-1.8.1-6.6 1.9-.9.3-4.5.9l-.2.3a.7.4-1.7 0 1-.4.2l-31.3 7.7" vector-effect="non-scaling-stroke"/><path stroke="#f38510" d="m986 448.8-4-2.6q-11.2-9.5-14.6-12-2.9-2.2-15.8-10.7-8-5.4-16.4-9.7-20.5-10.7-33.7-15.6-18.8-7-37.4-13a1.1 1 22.7 0 1-.7-1.6c6.3-12.2 15.4-26.5 20.2-34.9q4.5-7.7 12-19.7 8.7-13.6 18-29.1c5.6-9.2 11.6-18.1 16.4-25.6l18.3-29.9c11.4-18.6 22-34.3 34.6-54.1a.1.1 0 0 0-.2-.2c-3.8 3.2-6 5.8-9.6 8q-2 1.4-12.7 10.3-38.8 32.4-68.2 65-23.3 25.7-48.3 60.6-4.6 6.4-18.3 27c-2.3 3.5-4 7.7-6.1 10.1q-1.3 1.6-3.5 1.1a542.3 542.3 0 0 0-77.5-12.4q-25.2-2-41.6-2.5-25.8-.9-55.6 1.7-47.4 4.1-84.5 13-3 .7-4.4-1.6-12-19.2-26.6-40-14.5-20.6-38.7-48.8a625 625 0 0 0-75.4-73c-6.9-5.8-13.8-11-20.2-16.8a.4.3 16.2 0 0-.6.3q.1.6.4 1c5.5 8.5 11 18 16.9 27 4 6.2 7.4 11 12.3 18.9l22 35q8 12.6 13.5 22c11 18.6 22.5 36.2 32.3 52.6l18.4 30.7 2.4 4.4a.7.7-21.5 0 1-.4 1q-13.6 4.3-28.4 9.7a332.8 332.8 0 0 0-62.6 30.8q-13.6 8.5-30.7 23.6" vector-effect="non-scaling-stroke"/><path stroke="#7b5447" d="M387 448.8q-3-.4-7.3-1.5-17.9-4.5-34.8-9c-11.3-3.2-26-6.7-38-10q-4-1.1-7.5-1.7" vector-effect="non-scaling-stroke"/><path stroke="#f38510" d="M299.4 426.6q-1.4-7.7-1.7-10.9-1.1-9.4-2.7-28.5-3-36.2-1.6-73" vector-effect="non-scaling-stroke"/><path stroke="#f4a065" d="M293.4 314.3q-.2-1.2 0-2.8l.3-2.6q.8-18.2 3.7-36.2a.6.6 0 0 0-1-.5c-15.5 9.7-30.4 20-43.6 33q-12.4 12.3-16.6 17c-16.7 18.6-30 36.5-47.7 59.8q-4.6 6-12.1 13.6-23 23.5-51.4 39.7-5.9 3.4-13.1 6.4c-11.7 5-17.6 7.8-27.2 10a.7.7 0 0 0-.4 1.1q6.4 6.6 14.2 11.8" vector-effect="non-scaling-stroke"/><path stroke="#f38510" d="M98.5 464.6q3.5 3.4 7.5 5.7c17 9.4 34.7 15.2 53.8 19.7q.3 0 .4.3.4.6-.1 1a504.7 504.7 0 0 0-55.4 55.4q-26.7 32-42.5 70.8-8.3 20.3-12.6 42.4a.7.7 0 0 0 .9.7l31.8-11" vector-effect="non-scaling-stroke"/><path stroke="#f26d0b" d="m82.3 649.6 7.7-1.8q19-4.7 38-5.3a.5.5 0 0 1 .5.7q-7.2 15-11.8 23.5-1.9 3.6-8.7 21.1-14 36.5-19.8 72-5.5 33.1-3.4 67.1a.6.6 0 0 0 .9.5l14-10a307.6 307.6 0 0 1 40.3-23.7q2.1-1.1 3.3-1.5a.6.6 0 0 1 .8.7q-2.8 32 .6 63.9a290 290 0 0 0 10.5 49q6.4 22.2 17 44.2.7 1.5 1.9 2" vector-effect="non-scaling-stroke"/><path stroke="#7b5447" d="m174 952-.2 84.1" vector-effect="non-scaling-stroke"/><path stroke="#35997c" d="M878.3 966.5c-2.8 7.1-7 17-8.3 21" vector-effect="non-scaling-stroke"/><path stroke="#818a51" d="M986 448.8Q934 463 900.7 473 853 487.2 806 511a368.7 368.7 0 0 0-34.6 20.4 258.6 258.6 0 0 0-85.3 90.6.3.3 0 0 1-.5 0q-2-4.4-4.1-7.7-9.1-14.9-20.2-29-10-12.9-24.2-25.8-15.4-14-28.8-23-19.6-13.4-32.2-20.3-19.4-10.5-31.3-16-43-19.4-89-32.2L387 448.8" vector-effect="non-scaling-stroke"/><path stroke="#fad56f" d="M1015.7 1090.3q.9 2-.4 3.3a91.4 91.4 0 0 1-45.1 24.2q-5 1.1-12 1.2-9.7.1-12-.2-20.2-2.5-39.1-11.5m368.6-643.7c-9 1-19-.4-27.5-3a152.5 152.5 0 0 1-38.7-18.7 211 211 0 0 1-36-32.9q-5.8-6.5-23.4-28.4-19.6-24.4-45-47.7-8.3-7.6-18-14.4-3.5-2.5-8-4.5" vector-effect="non-scaling-stroke"/><path stroke="#80724c" d="m1198.2 531.5-.3 422.3" vector-effect="non-scaling-stroke"/><path stroke="#818a51" d="m1198 1055.2-.1 64.2a1.3 1.3 0 0 1-1 1.3l-33 6.1" vector-effect="non-scaling-stroke"/><path stroke="#29847f" d="M1064.1 1104q4.1-.2 8.4-1.2l8.2-2c4.4-1 9-2.5 13.3-3.3q18.2-3.6 29.8-6.1c10.5-2.2 22-4 32.1-5.7a1.1 1.1 85.2 0 0 1-1.1l-.1-510.2" vector-effect="non-scaling-stroke"/><path stroke="#4f9b84" d="m1156.8 574.4-.2-25.7a.7.7 0 0 0-.6-.6q-1.6-.2-4 .2-15.3 3.1-31.6 7.1c-30 7.5-59 14.9-87.7 24.4q-27 8.8-53.5 18.2-24.5 8.5-52.9 20-34.1 13.9-52.6 22.2-8.6 3.8-47.5 22c-15 7-28 14-41.5 20.6a1.6 1.5 77.5 0 0-.9 1.4l.3 28.8" vector-effect="non-scaling-stroke"/><path stroke="#29847f" d="M784 713q-.3 4.5-.3 9l.3 478.9a.5.5-11.6 0 0 .8.4c9.2-3.9 17.7-8.4 27.4-12.5l13-5.4" vector-effect="non-scaling-stroke"/><path stroke="#146f84" d="M825.3 1183.4q5.3-1.8 10.4-4.1 8-3.7 10.3-4.6c15.3-5.8 24.4-9 34-13.9a1.5 1.5 0 0 0 .6-.7l.7-1.7a.5.5 22.1 0 1 .7-.3l1 .4" vector-effect="non-scaling-stroke"/><path stroke="#80724c" d="m174 952 .1-397" vector-effect="non-scaling-stroke"/><path stroke="#35997c" d="M890.7 942q-8.4 5.5-13.1 11.3c-5.4 6.5-11.3 12.7-15.8 19q-11.7 16.1-15.8 23.4-13.2 23-22 55c-2.2 8.2-3.8 19.4-4.7 25.5q-5.6 38.2.2 75.7c1.4 9.1 4.4 21.3 6.5 29.1q.4 1.4-.7 2.4" vector-effect="non-scaling-stroke"/><path stroke="#f8a215" d="M1289.8 649.7q-2.3-3.1-3-4.8c-3.4-9.5-9.7-16.8-15.6-24.9q-4.2-5.8-10.2-12.3-10.3-11.2-12.9-13.8-21.1-21.6-46.3-38.7-1.1-.8-1.6-.9a2.3 2.3 5 0 1-.7-.9l-.5-1a.2.2 37.8 0 0-.3.1v.4l-.3-4.2q-.3-8.5-.3-17.2" vector-effect="non-scaling-stroke"/><path stroke="#818a51" d="M1198.2 531.5V499a1.2 1.2-5.3 0 0-1.5-1.2l-44.8 8.2a3 3 0 0 1-2.7-.9l-76.8-78.8" vector-effect="non-scaling-stroke"/><path stroke="#fad56f" d="M293.4 314.3q-3.7 1.6-9.4 5.7-17.6 12.7-27.7 22.8-12.5 12.4-23.5 24.6c-9.2 10.1-18 21.7-25.5 31q-9.5 11.7-22.5 25.2-6 6.2-18.5 15.8-5.3 4-14 8.6-10 5.2-14.7 7.3-3.4 1.6-5.6 2.2l-5.6 2q-9 3.4-19.2 4.6l-4.4.1q-2.2 0-4.3.4" vector-effect="non-scaling-stroke"/><path stroke="#818a51" d="m299.4 426.6-77.9 79.6a1 1-62 0 1-.8.3l-45.8-9.2a.8.8-84.3 0 0-1 .8l.2 56.9" vector-effect="non-scaling-stroke"/><path stroke="#f8a215" d="m174.1 555-3.8 1a3 2.8 19.6 0 0-.8.4q-6.8 4.3-14 9.9-13.2 10.4-23.2 19.4-8.5 7.7-25.2 26.4-2.4 2.6-15.5 20.5-6.3 8.7-9.3 17" vector-effect="non-scaling-stroke"/><path stroke="#70c57c" d="M1156.8 574.4q-.6 2-.4 4.2a1.3 1.3-7.8 0 1-1 1.4q-26.5 5.2-51.2 11.7-56.6 15-109.6 33.6c-15 5.2-34.2 12.7-48 17.6-16.8 6-31.8 12.8-52.4 21.3q-9.1 3.8-30.8 13.9c-18.7 8.7-32.7 14.4-48.8 22.8q-11.4 6-28.5 14.2a1.3 1.3 0 0 1-1.9-1l-.1-1" vector-effect="non-scaling-stroke"/><path stroke="#f38510" d="M499 232.5q23.9 26.4 29.7 33.5 10.2 12.4 34.2 46 5.2 7.4 8.8 13.1a2 2 0 0 0 2 1 624 624 0 0 1 143.6-9.5q43.5 2.1 81 9.7a1.5 1.4-54.1 0 0 1-.2q1.3-.8 2.3-2.3c10.3-17 21.2-30.8 35.1-48.7q7.6-9.7 15.8-19 18.3-20.8 38.4-39.8" vector-effect="non-scaling-stroke"/><path stroke="#f4a065" d="m891 216.3 9.7-9.5q5.5-5.4 9.7-9c5.6-4.6 9.5-7.5 11.1-9.6a.7.7 0 0 0-.4-1.2c-19.7-4.9-40.9-6-60.3-5.5q-15.4.4-31 3.4-22 4.3-37.8 9.1-8.4 2.6-20.3 5.7a.5.5 0 0 1-.6-.6q3.3-16.2 10.3-31l5-10c4.2-8 9.7-15.1 14.4-22l1.2-2a.7.7 0 0 0-.7-1q-11.2-.1-23.6 1.8-52.7 8.5-99.4 38.2-16.5 10.5-27 18-10.8 7.4-15.2 11.2l-19.4 16.4q-2 1.5-3.6 2.3a.5.5 0 0 1-.7-.4q-1.5-5.8-2.3-11.7a161.7 161.7 0 0 1 1.1-62.4l3.3-11.8a.5.5 0 0 0-.5-.7q-3 0-6 .6-62.9 12-108.6 55.5-11.2 10.7-20.3 21.3a1 1 0 0 0 0 1.4l19.8 19.7" vector-effect="non-scaling-stroke"/><path stroke="#fad56f" d="M891 216.3q-3.1-.9-4.2-1-2 0-19.3-1.2-7.1-.5-24.5 0c-6.4.3-13.5 1.7-19 2.2q-5.7.5-14 2.3-17.3 3.7-27 6.6l-13.1 4c-11.1 3.3-25.6 10-33 12.5q-2 .7-3.3.8a.5.5 0 0 1-.6-.7c1.3-4.9 1.2-10.8 2-16.8q3.4-23.6 9.2-43.5.6-2.2 1.6-4.1a.7.7 0 0 0-.8-1q-14 3.8-26.3 8.6-9.2 3.5-23.2 10.3-9.9 4.8-22 12.6c-10.6 6.8-20.2 12.6-29.1 19.8q-22 17.5-41.3 40a.6.6 0 0 1-1-.1q-3.8-5.3-6.4-11.3-4.3-9.8-7-16.6-10.8-27.1-10.6-56 0-3.2.9-6.4a.5.5-3 0 0-.7-.6q-21 7.6-39.1 19.7-12.4 8.2-18.2 14c-9.8 9.6-15 14.6-18.8 18.8q-1.5 1.7-3.3 3.3" vector-effect="non-scaling-stroke"/><path stroke="#f4a065" d="m350.4 207.2-.2.5Q344 236.8 341 255q-2 12.6-5 42.1c-1.1 9.7-1.2 19.6-1.7 32.1q-2.2 52.8 8 103.3a.2.2 0 0 0 .4 0c19.7-17.7 42-36 64.6-49.3q18.2-10.7 39.9-20a.7.7 64.3 0 0 .3-.8l-7.1-12.4-25.4-41.6c-5.5-9-12.5-21.3-18.9-31.5q-21.8-35-45-69.6-.4-.4-.8-.1m670.5.7q-.4.3-.7.8c-16.5 25.2-24.4 36.8-37 57.5q-39.3 63.7-56.3 92-1 1.4-2.2 3.9a.5.5 0 0 0 .3.6q7.9 4 16.8 8.2a256.4 256.4 0 0 1 48.7 29.6c10 7.8 24.3 18.6 34 27.6q2.8 2.6 4.5 4.5a.4.4 0 0 0 .7-.2c.8-5.4 2.2-10.8 3-16.2q7.8-50.7 4.4-102.5-2-30-5-53c-2.4-17.2-7.5-39-10.5-52.6a.5.5 0 0 0-.7-.2" vector-effect="non-scaling-stroke"/><path stroke="#81a5a5" d="M662.6 670.1a.3.3 0 0 0 .4-.3q-10-27.7-27.4-50.9-19.3-25.7-47.2-45.8-15.9-11.4-30.5-19.4-46.2-25.2-96.3-40.5-35-10.8-101.4-28.7-18.6-5-46.9-12a.8.8 28.8 0 0-.8.2l-42.8 43.9a.7.7 0 0 0 .4 1q36 8.9 72.1 19.7 33.6 10.2 86 29.4 24 8.8 52.6 21 35.4 15.2 51.9 22.9 28 13 64.3 31.1c8.7 4.4 16.6 9 24.8 13.5q19.6 10.7 40.9 15m47.7-.7c14.7-2 29.4-8.3 41.8-15.4q13.8-7.9 25-13.4c23.9-11.9 49.1-24.4 75.4-36q26-11.7 32.8-14.5 106-45 217.7-72.6a.6.6 0 0 0 .1-1q-1.6-1-2.7-2-20.6-21.3-39.9-41.6a2 2-27.8 0 0-1.9-.6q-9 2-18.5 4.6-66.2 17.6-117.3 32.6a515.5 515.5 0 0 0-115.3 48 238.3 238.3 0 0 0-71.2 61.7q-12 16-21.1 35.8c-2.1 4.5-3.6 9-5.3 13.9a.4.4 0 0 0 .4.5" vector-effect="non-scaling-stroke"/><path stroke="#217ba7" d="m215 580 .1 504.3a1.4 1.4-85.5 0 0 1.2 1.4c18.6 3 35.5 6.3 54.3 10.4 23.6 5.1 43.1 10.3 68.7 16.6q18.1 4.4 37.3 10.1 44 13.1 78.9 25.3 43 15 87.5 33.7 23 9.7 44.4 20a.4.4-77.6 0 0 .6-.4V709" vector-effect="non-scaling-stroke"/><path stroke="#4095b9" d="M588.1 709v-25.7a.8.8-78.2 0 0-.5-.8c-17.2-7.8-34.4-16.8-51.5-25q-38.4-18.1-82.3-36.2-23.5-9.8-44.5-17.3a1639.7 1639.7 0 0 0-94.5-31.8q-22.3-6.5-65.1-17.4-16.3-4-33.6-7a.6.6 0 0 0-.7.5l-.3 31.7" vector-effect="non-scaling-stroke"/><path stroke="#59b7d8" d="m588.1 709-.1 6a.8.7 13.6 0 1-1 .6c-16.2-7.7-31-16.4-46.9-23.6q-43.8-20-58.5-26.3-37.6-16.3-78.5-31.5c-21-7.8-44.8-15.6-63.7-21.8q-38.8-12.8-95.7-27.1-5.6-1.4-21-4.5c-2.5-.5-5-.5-7.6-.8" vector-effect="non-scaling-stroke"/><path stroke="#29847f" d="M629.4 735.5 629 1226a1.5 1.5 0 0 0 .8 1.4q20 11.4 42.3 13.9 22.5 2.5 41.3-2.2 11.2-2.8 25.8-10.4l1.3-.7q2.2-1.1 2.2-2.6-.5-40.3-.4-88.4l.1-172.7q.2-91.3.2-211.7v-19" vector-effect="non-scaling-stroke"/><path stroke="#4f9b84" d="m742.8 733.4-.3-29.3a.7.7 0 0 0-1-.7 161.9 161.9 0 0 1-99.6 3.4q-7.5-2.1-12-3.7a.4.4 0 0 0-.5.4v32" vector-effect="non-scaling-stroke"/><path stroke="#70c57c" d="M742.8 733.4q-.5 1.9-1.5 2.2a184.7 184.7 0 0 1-50.7 9.8q-15.8.4-23.8-.8-13.2-2-37.4-9" vector-effect="non-scaling-stroke"/></g><path fill="#faf0c3" d="M891 216.3q-3.1-.9-4.2-1-2 0-19.3-1.2-7.1-.5-24.5 0c-6.4.3-13.5 1.7-19 2.2q-5.7.5-14 2.3-17.3 3.7-27 6.6l-13.1 4c-11.1 3.3-25.6 10-33 12.5q-2 .7-3.3.8a.5.5 0 0 1-.6-.7c1.3-4.9 1.2-10.8 2-16.8q3.4-23.6 9.2-43.5.6-2.2 1.6-4.1a.7.7 0 0 0-.8-1q-14 3.8-26.3 8.6-9.2 3.5-23.2 10.3-9.9 4.8-22 12.6c-10.6 6.8-20.2 12.6-29.1 19.8q-22 17.5-41.3 40a.6.6 0 0 1-1-.1q-3.8-5.3-6.4-11.3-4.3-9.8-7-16.6-10.8-27.1-10.6-56 0-3.2.9-6.4a.5.5-3 0 0-.7-.6q-21 7.6-39.1 19.7-12.4 8.2-18.2 14c-9.8 9.6-15 14.6-18.8 18.8q-1.5 1.7-3.3 3.3l-19.7-19.7a1 1 0 0 1-.1-1.4q9.1-10.6 20.3-21.3 45.7-43.5 108.5-55.5 3.1-.6 6.1-.6a.5.5 0 0 1 .5.7l-3.3 11.8c-5.2 20.3-4 41.6-1 62.4q.7 5.9 2.2 11.7a.5.5 0 0 0 .7.4q1.6-.8 3.6-2.3l19.4-16.4q4.4-3.8 15.2-11.3 10.5-7.4 27-17.9 46.7-29.7 99.4-38.2 12.4-2 23.7-1.9a.7.7 0 0 1 .6 1q-.6 1.2-1.2 2c-4.7 7-10.2 14.1-14.3 22.1q-3.7 7.1-5 10-7 14.8-10.4 31a.5.5 0 0 0 .7.6q11.8-3 20.2-5.7 15.8-4.8 37.9-9.1 15.5-3 31-3.4c19.3-.4 40.5.6 60.2 5.5a.7.7 0 0 1 .4 1.2c-1.6 2-5.5 5-11 9.7q-4.3 3.5-9.8 9l-9.8 9.4z" style="display:inline"/><path fill="#f9ba1a" d="M891 216.3q-20.2 19-38.5 39.8-8.2 9.3-15.8 19c-14 17.9-24.8 31.7-35.2 48.7q-1 1.5-2.3 2.3a1.5 1.4-54.1 0 1-1 .2q-37.4-7.6-81-9.7a624 624 0 0 0-143.4 9.4 2 2 0 0 1-2.1-.9q-3.6-5.7-8.8-13-24-33.7-34.2-46-5.8-7.2-29.8-33.6 1.8-1.6 3.3-3.3c3.8-4.2 9-9.2 18.8-18.9q5.8-5.7 18.2-13.9 18.1-12 39-19.7a.5.5-3 0 1 .8.6q-.8 3.2-.9 6.5-.2 28.8 10.6 56 2.7 6.7 7 16.5 2.6 6 6.4 11.3a.6.6 0 0 0 1 0q19.3-22.4 41.3-40c8.9-7 18.5-12.9 29-19.7q12.2-7.8 22-12.6 14-6.8 23.3-10.3 12.3-4.8 26.3-8.6a.7.7 0 0 1 .8 1q-1 1.9-1.6 4-5.8 20-9.1 43.6c-.9 6-.8 12-2.1 16.8a.5.5 0 0 0 .6.7q1.3-.1 3.3-.8c7.4-2.6 21.9-9.2 33-12.5l13.1-4q9.7-2.9 27-6.6 8.3-1.8 14-2.3c5.5-.5 12.6-2 19-2.1q17.4-.6 24.5-.1l19.3 1.3q1.1 0 4.1 1z" style="display:inline"/><path fill="#f9ba1a" d="M986 448.8Q934 463 900.7 473 853 487.2 806 511a368.7 368.7 0 0 0-34.6 20.4 258.6 258.6 0 0 0-85.3 90.6.3.3 0 0 1-.5 0q-2-4.4-4.1-7.7-9.1-14.9-20.2-29-10-12.9-24.2-25.8-15.4-14-28.8-23-19.6-13.4-32.2-20.3-19.4-10.5-31.3-16-43-19.4-89-32.2L387 448.8q17-15.1 30.7-23.6a336.9 336.9 0 0 1 62.6-30.8q14.8-5.4 28.4-9.7a.7.7-21.5 0 0 .4-1q-1.2-2.5-2.4-4.4l-18.4-30.7c-9.8-16.4-21.2-34-32.3-52.6q-5.5-9.3-13.6-22l-21.9-35c-4.9-7.9-8.2-12.7-12.3-19-6-8.8-11.3-18.4-16.9-26.8q-.3-.5-.4-1.1a.4.3 16.2 0 1 .6-.3c6.4 5.8 13.3 11 20.2 16.8a625 625 0 0 1 75.4 73q24.2 28.2 38.7 48.8 14.7 20.8 26.6 40 1.5 2.3 4.4 1.7 37.1-9 84.5-13 29.8-2.7 55.6-1.8 16.4.5 41.6 2.5c27 2.1 52.2 6.7 77.6 12.4q2.1.5 3.4-1c2-2.5 3.8-6.7 6.1-10.1q13.7-20.7 18.3-27.1 25-34.9 48.3-60.6 29.4-32.6 68.2-65 10.6-9 12.7-10.2c3.6-2.3 5.8-4.9 9.6-8a.1.1 0 0 1 .2 0c-12.7 19.9-23.2 35.6-34.6 54.2L930 274.3c-4.8 7.5-10.8 16.4-16.3 25.6q-9.4 15.6-18 29.1-7.6 12-12 19.7c-4.9 8.4-14 22.7-20.3 34.9a1.1 1 22.7 0 0 .7 1.5q18.7 6 37.4 13.1 13.2 5 33.8 15.6 8.2 4.3 16.3 9.7 13 8.5 15.8 10.7 3.4 2.5 14.7 12 .8.7 3.9 2.6z" style="display:inline"/><path fill="#faf0c3" d="M350.4 207.2q.4-.3.7.1 23.3 34.7 45.1 69.6c6.4 10.2 13.4 22.5 19 31.5l25.3 41.6q3.2 5.3 7.1 12.4a.7.7 64.3 0 1-.3.9q-21.7 9.2-40 20a412.8 412.8 0 0 0-64.5 49.3.2.2 0 0 1-.3-.2q-10.3-50.4-8.1-103.1c.5-12.7.6-22.5 1.6-32.2q3.1-29.5 5.1-42 2.9-18.3 9-47.4l.3-.5zm670.5.7a.5.5 0 0 1 .7.2c3 13.5 8.1 35.4 10.5 52.7q3 22.8 5 53 3.4 51.7-4.3 102.4c-.9 5.4-2.3 10.8-3.1 16.2a.4.4 0 0 1-.7.2q-1.7-1.9-4.6-4.5c-9.6-9-24-19.8-34-27.6a258.9 258.9 0 0 0-48.6-29.6q-9-4.2-16.8-8.1a.5.5 0 0 1-.3-.7l2.2-4q17-28.2 56.2-92c12.7-20.6 20.6-32.2 37-57.4l.8-.8zM293.4 314.3c-2.5 1-5.6 3-9.4 5.7-11.8 8.5-21 16-27.7 22.8a676 676 0 0 0-23.5 24.6c-9.2 10.1-18 21.7-25.5 31a395 395 0 0 1-22.5 25.2c-4 4.1-10.1 9.4-18.5 15.8a96.4 96.4 0 0 1-14 8.6c-6.7 3.4-11.6 5.9-14.7 7.3-2.3 1-4.1 1.8-5.6 2.2l-5.6 2a80.8 80.8 0 0 1-28 5 86 86 0 0 1-14-11.7.7.7 0 0 1 .3-1.2c9.6-2 15.5-4.9 27.2-9.9 4.8-2 9.2-4.2 13-6.4a236.6 236.6 0 0 0 63.6-53.3c17.6-23.3 31-41.2 47.7-59.8 2.8-3.1 8.3-8.8 16.6-17 13.1-13 28-23.3 43.7-33a.6.6 0 0 1 .9.5 304.9 304.9 0 0 0-3.7 36.2 92 92 0 0 1-.3 5.4zm982.3 149.3c-9 1-19-.4-27.5-3a152.5 152.5 0 0 1-38.7-18.7 211 211 0 0 1-36-32.9q-5.8-6.5-23.4-28.4-19.6-24.4-45-47.7-8.3-7.6-18-14.4-3.5-2.5-8-4.5-.8-2.5-.8-3.5-.7-19.2-3.6-37.8a.4.4 0 0 1 .7-.4c25 14.8 47.3 33.8 66.5 56.6q16.4 19.4 35 44.3 20.3 27.4 48 47.6l12.4 8.4q7.4 5 12.8 7.7 18.6 9.7 38.1 15.3a.4.4 32.4 0 1 .2.7z" style="display:inline"/><path fill="#f9ba1a" d="M1275.7 463.6a41 41 0 0 1-4.5 3.8c-6 4-11.7 7.1-17.1 9.4a264.4 264.4 0 0 1-41.6 13.3.6.6 0 0 0-.3 1 426.8 426.8 0 0 0 13.9 12.8c4.6 4.1 13.9 13.1 28 27 2 2.1 4.2 4.9 6.6 7.4a258.1 258.1 0 0 1 33.4 46.3 335.3 335.3 0 0 1 23.6 54.2 130 130 0 0 1 5.4 21c.1.5-.4 1-.9.8l-32.4-10.9a28 28 0 0 1-3-4.8c-3.4-9.5-9.7-16.8-15.6-24.9-2.8-3.9-6.2-8-10.2-12.3a863 863 0 0 0-12.9-13.8 299.7 299.7 0 0 0-46.3-38.7l-3.6-2.4V499c0-.7-.8-1.3-1.5-1.2l-44.8 8.2a3 3 0 0 1-2.7-.9l-76.8-78.8c2-7.5 3.5-17.1 4.5-28.8a594.5 594.5 0 0 0 1.7-81.3 5 5 0 0 1 .4-2.2c3 1.4 5.8 2.9 8 4.5 6.5 4.5 12.6 9.4 18 14.4a434 434 0 0 1 45.1 47.7 813 813 0 0 0 23.5 28.4 211 211 0 0 0 35.9 33 152.5 152.5 0 0 0 38.7 18.5 70 70 0 0 0 27.5 3.1zM293.4 314.3Q292 351 295 387.2q1.6 19.1 2.7 28.6.3 3.1 1.7 10.8l-77.9 79.6a1 1-62 0 1-.8.3l-45.8-9.2a.8.8-84.3 0 0-1 .8l.2 56.9-3.8 1a3 2.8 19.6 0 0-.8.4q-6.8 4.3-14 9.9-13.2 10.4-23.2 19.4-8.5 7.7-25.2 26.4-2.4 2.6-15.5 20.5-6.3 8.7-9.3 17l-31.8 11a.7.7 0 0 1-.9-.7q4.3-22.1 12.6-42.4 15.8-38.8 42.5-70.8c16.7-20 36.3-38.7 55.4-55.3q.5-.5.1-1.1-.1-.3-.4-.3c-19-4.5-36.9-10.3-53.8-19.7q-4-2.3-7.5-5.7 2.1-.3 4.3-.4l4.4-.1q10.1-1.2 19.2-4.5 4.4-1.7 5.6-2l5.6-2.3q4.7-2.1 14.7-7.3 8.7-4.5 14-8.6 12.6-9.6 18.5-15.8 13-13.5 22.5-25.3c7.5-9.3 16.3-20.8 25.5-31q11-12 23.5-24.5 10-10.1 27.7-22.8 5.7-4 9.4-5.7z" style="display:inline"/><path fill="#085987" d="m1072.4 426.3 76.8 78.8a3 3 0 0 0 2.7.9l44.8-8.1a1.2 1.2 0 0 1 1.4 1.2v32.4l-.2 422.3v165.6c0 .6-.5 1.2-1 1.3l-33 6.1c-14 3.2-27 5.1-40.8 7-6.8.9-14 .2-21.5-1.9a93 93 0 0 1-13.1-4.6 39.4 39.4 0 0 1-11.3-8 558 558 0 0 1-8.7-9.5l-4.4-5.7a47.4 47.4 0 0 0 8.4-1.3l8.2-2c4.4-1 9-2.5 13.3-3.3l29.8-6.1c10.5-2.2 22-4 32.1-5.7.5-.1 1-.6 1-1.1l-.1-510.2-.2-25.7a.7.7 0 0 0-.6-.6c-1-.2-2.4 0-4 .2a696.4 696.4 0 0 0-31.6 7.1c-30 7.5-59 14.9-87.7 24.4a3113.6 3113.6 0 0 0-53.5 18.2 1763.6 1763.6 0 0 0-105.5 42.2 4634 4634 0 0 0-47.5 22c-15 7-28 14-41.5 20.6-.5.2-.8.8-.8 1.4l.2 28.8c-.3 3-.4 6-.4 9l.3 478.9a.5.5 0 0 0 .8.4c9.2-3.9 17.7-8.4 27.4-12.4a866.5 866.5 0 0 1 13-5.5 105 105 0 0 0 10.5-4.1c5.3-2.5 8.7-4 10.3-4.6 18.6-7.3 19.2-7.6 37.7-15.6a287 287 0 0 0 15.6 25 190 190 0 0 0 8.9 11c-17 6.8-36.3 13.9-50.7 19.8a1124.9 1124.9 0 0 0-73.4 33.5c-5 2.5-10 5.5-14.9 9-6.8 4.9-10.8 7.7-12 8.4-16 8.8-32.8 14-50.3 16.3a202.4 202.4 0 0 1-36.9.4 130.8 130.8 0 0 1-54.3-16.5c-5-2.8-9.2-6.1-14.2-9.8-5.1-3.8-12.3-7.6-17.9-10.3a1166 1166 0 0 0-77.6-34.4c-19.6-7.8-36-14.2-49-19-24-8.8-43.5-15.4-58.4-19.8a1661 1661 0 0 0-87.8-24.7c-20.4-5-45.4-10.4-74.8-16.4-20.5-4.2-43.4-7.5-61.4-10.8a.7.7 0 0 1-.6-.7l-.2-84 .3-84V555l-.1-57a.8.8 0 0 1 1-.8l45.8 9.2a1 1 0 0 0 .8-.3l78-79.6c2.3.4 4.8 1 7.4 1.7 12 3.4 26.7 6.9 38 10a2271.5 2271.5 0 0 0 34.8 9c2.8.7 5.2 1.2 7.3 1.5l68.7 19.3A523.4 523.4 0 0 1 576 516.3c8.4 4.6 19.1 11.3 32.2 20.3a255.5 255.5 0 0 1 53 48.7c7.4 9.5 14.1 19.2 20.2 29 1.4 2.3 2.7 4.9 4 7.8a.3.3 0 0 0 .6 0 257 257 0 0 1 85.3-90.5c10.7-7 22-14.1 34.6-20.5 31.4-16 63-28.7 94.8-38.1 22.3-6.6 50.7-14.7 85.3-24.2 9.5-2.9 32-7.8 86.4-22.5zM662.6 670a.3.3 0 0 0 .4-.3 193.2 193.2 0 0 0-27.4-50.9 217.1 217.1 0 0 0-47.2-45.8 292.4 292.4 0 0 0-30.5-19.4 513.7 513.7 0 0 0-96.3-40.5 3409 3409 0 0 0-148.3-40.7.8.8 0 0 0-.8.2l-42.8 43.9a.7.7 0 0 0 .4 1 1370.2 1370.2 0 0 1 72.1 19.7 1640 1640 0 0 1 86 29.4c16 5.9 33.5 12.9 52.6 21a2089 2089 0 0 1 51.9 22.9c18.7 8.7 40.1 19 64.3 31.1 8.7 4.4 16.6 9 24.8 13.5a146 146 0 0 0 40.9 15zm47.8-.6c14.7-2 29.4-8.3 41.8-15.3a447 447 0 0 1 25-13.5c23.9-11.9 49.1-24.4 75.4-36l32.8-14.5c70.7-30 143.2-54.2 217.7-72.6a.6.6 0 0 0 .1-1c-1-.6-2-1.3-2.7-2a3935 3935 0 0 1-39.9-41.6 2 2 0 0 0-1.9-.6 464.4 464.4 0 0 0-18.5 4.6 5092.5 5092.5 0 0 0-117.3 32.6 515.5 515.5 0 0 0-115.3 48 238.3 238.3 0 0 0-71.2 61.7c-8 10.7-15 22.6-21.1 35.8-2.1 4.5-3.6 9-5.3 13.9a.4.4 0 0 0 .4.5zM215.1 580v504.3c0 .7.5 1.3 1.2 1.4 18.6 3 35.5 6.3 54.3 10.4 23.6 5.1 43.1 10.3 68.7 16.6 12 3 24.5 6.3 37.3 10.1a1958 1958 0 0 1 78.9 25.3c28.7 10 57.9 21.2 87.5 33.7a999.7 999.7 0 0 1 44.4 20c.3 0 .6-.1.6-.4V683.3a.8.8 0 0 0-.5-.8c-17.2-7.8-34.4-16.8-51.5-25-25.6-12-53-24.2-82.3-36.2a1639.7 1639.7 0 0 0-139-49c-14.8-4.4-36.6-10.2-65.1-17.4-10.9-2.8-22-5.2-33.6-7.2a.6.6 0 0 0-.7.6zm414.2 155.5-.2 490.4c0 .6.3 1.1.8 1.4a115.5 115.5 0 0 0 83.6 11.7 121 121 0 0 0 25.8-10.4 491 491 0 0 1 1.3-.7c1.5-.8 2.2-1.6 2.2-2.6a8036 8036 0 0 1-.4-88.4l.1-172.7a79294.9 79294.9 0 0 0 .3-230.8l-.3-29.3a.7.7 0 0 0-1-.6A161.9 161.9 0 0 1 630 703a.4.4 0 0 0-.5.4z" style="display:inline"/><path fill="#faf0c3" d="M662.6 670.1q-21.2-4.2-40.8-15c-8.2-4.5-16.1-9-24.8-13.4q-36.3-18.1-64.3-31.1-16.5-7.7-51.9-22.8-28.6-12.3-52.6-21-52.4-19.3-86-29.5-36-10.8-72.1-19.6a.7.7 0 0 1-.4-1.1l42.8-43.9a.8.8 28.8 0 1 .8-.2q28.3 7 47 12 66.3 18 101.3 28.7 50.1 15.3 96.3 40.5 14.6 8 30.5 19.4 27.9 20 47.2 45.8 17.4 23.2 27.4 50.9a.3.3 0 0 1-.3.3zm47.8-.6a.4.4 0 0 1-.4-.5c1.7-4.8 3.2-9.4 5.2-13.9q9.3-19.8 21.2-35.8a238.3 238.3 0 0 1 71.2-61.6c36-21 75-36.3 115.3-48q51.1-15 117.3-32.7 9.6-2.6 18.5-4.6a2 2-27.8 0 1 2 .6q19.2 20.3 39.8 41.5 1 1.1 2.7 2.1a.6.6 0 0 1-.1 1q-111.7 27.6-217.7 72.6-6.7 2.8-32.8 14.4c-26.3 11.7-51.5 24.2-75.4 36q-11.2 5.6-25 13.5c-12.4 7.1-27 13.4-41.8 15.4z" style="display:inline"/><path fill="#f78a10" d="m1198.2 552.7 3.6 2.5a299.7 299.7 0 0 1 46.3 38.7c1.8 1.7 6 6.4 13 13.8 3.9 4.3 7.3 8.4 10 12.3 6 8.1 12.3 15.4 15.8 24.9.4 1.1 1.4 2.7 2.9 4.8a215 215 0 0 0-26.8-5.8 930.5 930.5 0 0 1-18.5-1.5c-.6 0-1 .5-.7 1 1.5 3.2 2.7 6.5 4.4 9.7a378.7 378.7 0 0 1 28.6 73.2A326.4 326.4 0 0 1 1288 821c0 2.5-.3 4.5-.7 6a1 1 0 0 1-1.5.5c-11.5-9.6-24.1-18-37.7-25.5a807.8 807.8 0 0 0-19-10.2.7.7 0 0 0-1 .7 315.4 315.4 0 0 1-3 81 310.4 310.4 0 0 1-24.4 75.4c-.7 2-1.8 4.2-2.8 5 0 0 .2-408.1.3-401z" style="display:inline"/><path fill="#77d1ea" d="m588.1 709-.1 6a.8.7 13.6 0 1-1 .6c-16.2-7.7-31-16.4-46.9-23.6q-43.8-20-58.5-26.3-37.6-16.3-78.5-31.5c-21-7.8-44.8-15.6-63.7-21.8q-38.8-12.8-95.7-27.1-5.6-1.4-21-4.5c-2.5-.5-5-.5-7.6-.8l.3-31.7a.6.6 0 0 1 .7-.6q17.3 3 33.6 7.1 42.8 10.9 65.1 17.4c27.7 8.1 58 18.6 94.6 31.8q21 7.5 44.4 17.3 43.9 18 82.3 36.3c17.1 8 34.3 17 51.6 25a.8.8-78.2 0 1 .4.7z" style="display:inline"/><path fill="#96dc80" d="M1156.8 574.4q-.6 2-.4 4.2a1.3 1.3-7.8 0 1-1 1.4q-26.5 5.2-51.2 11.7-56.6 15-109.6 33.6c-15 5.2-34.2 12.7-48 17.6-16.8 6-31.8 12.8-52.4 21.3q-9.1 3.8-30.8 13.9c-18.7 8.7-32.7 14.4-48.8 22.8q-11.4 6-28.5 14.2a1.3 1.3 0 0 1-1.9-1l-.1-1-.2-28.9a1.6 1.5 77.5 0 1 .8-1.4c13.5-6.5 26.5-13.5 41.5-20.5q39-18.3 47.5-22.1 18.5-8.3 52.6-22.2 28.4-11.5 52.9-20 26.6-9.4 53.5-18.2a1221 1221 0 0 1 87.7-24.4q16.3-4 31.6-7 2.4-.5 4-.3a.7.7 0 0 1 .6.6z" style="display:inline"/><path fill="#f78a10" d="M174.1 555v397q-1.2-.5-2-2-10.5-22-16.9-44.1a290.9 290.9 0 0 1-10.5-49.1q-3.4-31.8-.6-64a.6.6 0 0 0-.8-.6q-1.2.4-3.4 1.5a307.6 307.6 0 0 0-40.2 23.7l-14 10a.6.6 0 0 1-1-.5q-2-34 3.5-67.2Q94 724.3 108 688q6.8-17.6 8.7-21.2 4.6-8.5 11.8-23.5a.5.5 0 0 0-.5-.7q-19 .6-38 5.3-3.6 1-7.7 1.8 3-8.3 9.3-17 13-17.9 15.5-20.5 16.7-18.7 25.2-26.4 10-9 23.2-19.4 7.2-5.6 14-10a3 2.8 19.6 0 1 .8-.3z" style="display:inline"/><path fill="#4aae77" d="M1156.8 574.4v510.2a1.1 1.1 0 0 1-.9 1c-10 1.7-21.6 3.6-32.1 5.8a2339 2339 0 0 1-29.8 6c-4.4 1-8.9 2.4-13.3 3.4l-8.2 2a47.4 47.4 0 0 1-8.4 1.3l-5.6-11.4a60 60 0 0 1-2.2-6 93.5 93.5 0 0 1-3.3-28.2c0-12.3 1-24.4 3-36.2 1-5.1 1.5-9.5 2-13.1l1.3-13.2c.3-6 .4-12.1 0-18.2a101 101 0 0 0-11.3-42 62.8 62.8 0 0 0-11.1-15.3 84.5 84.5 0 0 0-67.6-25.6c-12 .6-22.8 3.2-32.2 7.7-8.7 4.6-17.4 10-24.7 16.6-8.1 8.4-13.6 16.3-21.7 22.8a56 56 0 0 0-13.1 11.3c-5.4 6.5-11.3 12.7-15.7 19a299.9 299.9 0 0 0-16 23.4c-8.7 15.4-16 33.7-21.8 55a206 206 0 0 0-4.8 25.5 256 256 0 0 0 .2 75.7 278 278 0 0 0 6.6 29.1c.2 1 0 1.8-.8 2.4a866.5 866.5 0 0 0-13.1 5.4c-9.7 4.1-18.2 8.6-27.4 12.5a.5.5 0 0 1-.8-.5c0-159.7-.2-319.3-.3-478.8 0-3 .1-6 .4-9l.1 1.1a1.3 1.3 0 0 0 2 1c11.3-5.5 20.8-10.3 28.4-14.2 16-8.4 30-14.1 48.8-22.8a841.5 841.5 0 0 1 30.8-13.9c20.6-8.5 35.6-15.2 52.5-21.3 13.7-5 33-12.4 47.9-17.6 35.3-12.4 71.9-23.5 109.6-33.5 16.5-4.4 33.5-8.3 51.1-11.8a1.3 1.3 0 0 0 1-1.4 11.7 11.7 0 0 1 .5-4.2z" style="display:inline"/><path fill="#3a9cc6" d="M215 580c2.6.3 5.2.4 7.6.8q15.5 3 21.1 4.5 57 14.3 95.7 27a1897 1897 0 0 1 63.7 22q41 15.1 78.5 31.4 14.7 6.3 58.5 26.3c15.8 7.2 30.7 16 46.8 23.6a.8.7 13.6 0 0 1-.6l.2-6-.1 492.4a.4.4-77.6 0 1-.6.3q-21.3-10.2-44.4-20-44.4-18.7-87.5-33.6-35-12.2-78.9-25.3-19.2-5.7-37.3-10.1c-25.6-6.3-45-11.5-68.7-16.6-18.8-4-35.7-7.5-54.3-10.4a1.4 1.4-85.5 0 1-1.2-1.4z" style="display:inline"/><path fill="#96dc80" d="M742.8 733.4q-.5 1.9-1.5 2.2a184.7 184.7 0 0 1-50.7 9.8q-15.8.4-23.8-.8-13.2-2-37.4-9v-32a.4.4 0 0 1 .5-.5q4.5 1.5 12 3.7c33.3 9.8 67.2 7.9 99.6-3.3a.7.7 0 0 1 1 .6z" style="display:inline"/><path fill="#4aae77" d="M742.8 733.4c.5 164-1.5 328 0 491.9 0 1-.7 1.8-2.2 2.6l-1.3.7a121 121 0 0 1-25.8 10.4 115.5 115.5 0 0 1-83.6-11.7 1.5 1.5 0 0 1-.8-1.4l.2-490.4a273 273 0 0 0 37.5 9c5.3.9 13.2 1.2 23.8 1 17-.5 34.8-4.8 50.7-9.9.7-.2 1.2-1 1.5-2.2z" style="display:inline"/><path fill="#faf0c3" d="M1015.7 1090.3q.9 2-.4 3.3a91.4 91.4 0 0 1-45.1 24.2q-5 1.1-12 1.2-9.7.1-12-.2-20.2-2.5-39.1-11.5-2.7-7.8-4-16.4-4.5-27.1-1.4-55.3 2-19.1 7.8-34.7 6.3-17.2 15.3-32.1 9.6-15.8 25-25.8 8.7-5.6 18.7-6.3a49 49 0 0 1 29.3 6q15.7 9.3 19 27a142 142 0 0 1-1.7 46.5q-3.5 22.9-4 32.8-.9 18.8 4.6 41.3z" style="display:inline"/><path fill="#208481" d="M897 936.4c-7.6 11.4-3.8 4.2-10.1 14.6-6.5 11-5.6 10.4-8.6 15.5-2.2 4.7-4.7 10-8.5 20.4l-4.3 15.4-1.5 6a229.7 229.7 0 0 0-3.9 77.9 182 182 0 0 0 4 21.4c2 8.6 4 15.6 5.8 21 2.7 8.5 5 14.4 7 17.6l6 11.2c.4 1 .9 1.4.8 1.7-3.2 1.5-2.5 1-3.8 1.7-9.5 5-18.6 8.1-33.9 13.9-1.6.6-5 2.1-10.3 4.6a105 105 0 0 1-10.4 4.1c.7-.6 1-1.4.7-2.4-2.1-7.8-5-20-6.5-29.1-3.8-25-4-50.2-.2-75.7.9-6.1 2.5-17.3 4.8-25.5a236.9 236.9 0 0 1 21.9-55c2.7-4.9 8-12.7 15.8-23.5 4.5-6.2 10.4-12.4 15.8-19a128 128 0 0 1 19.3-16.8z" style="display:inline"/><path fill="#f9ba1a" d="M907 1107.3a126 126 0 0 0 39.3 11.5c1.4.2 5.4.3 12 .2a52 52 0 0 0 11.9-1.2 91.4 91.4 0 0 0 45.2-24.2c.8-.8.9-2 .3-3.3 1 2.3 1 2.6 1.8 4.8a89.2 89.2 0 0 0 30.1 42 76 76 0 0 0 29 14.4 87.9 87.9 0 0 0 83.3-21.7l4-3 33-6.1a1.3 1.3 0 0 0 1-1.3v-82.6c0-1 .4-.1 2-3 4-5.2 7.5-11 11-16.7a600 600 0 0 0 19.8-33.7.6.6 0 0 1 1 0c1.2 1.3 2.3 3 3.3 4.8 4 8.2 7.8 17 11 26.2a157 157 0 0 1 7.7 65.4 133.5 133.5 0 0 1-5.5 29.2 158.6 158.6 0 0 1-47.2 74.3 178.8 178.8 0 0 1-89.8 41.2 212 212 0 0 1-103-9.8 188 188 0 0 1-50.2-27.6 159.6 159.6 0 0 1-51-79.8z" style="display:inline"/><path fill="#ed4f06" d="M1269.1 868.3c.2-.6-.4-1.3-1.6-2-.4-.4-1-.1-1.1.4-.2.8 0 1.5.3 2.2.1 2 0 3.3-.5 4-1.3 2-1.5 3.5-.4 4.7a348 348 0 0 1-15 57.6 3 3 0 0 0 .6 3 170 170 0 0 1 28 46.2 238.5 238.5 0 0 1 15.7 63l.4 6.4c.6 9 .8 10.6 0 23.3a225 225 0 0 1-8.5 47.2 184.4 184.4 0 0 1-28.6 56.7 197.6 197.6 0 0 1-43.6 44.4 205 205 0 0 1-60.6 31.5 214.2 214.2 0 0 1-65.7 12c-6.3.3-12.5.3-18.5-.2a1260.1 1260.1 0 0 0-18-1.3l-15.2-2a251 251 0 0 1-29.4-7c-32-9.6-60.4-25.6-85.1-48-3.3-3-8-8-14.1-15.3a190 190 0 0 1-8.9-11 287 287 0 0 1-15.6-25l-.9-1.7c-2.5-5-4.5-8.7-6-11.2-1.9-3.2-4.2-9-7-17.6-1.7-5.4-3.6-12.4-5.7-21a182 182 0 0 1-4-21.4 229.7 229.7 0 0 1 5.4-84c3.3-12 4.3-19.4 12.8-35.7 9.7-20 18.6-32 34.1-47.3a83.3 83.3 0 0 1 24.7-16.6 81.4 81.4 0 0 1 32.2-7.7 84.5 84.5 0 0 1 67.6 25.6c4.7 5 8.4 10 11 15.2a102.8 102.8 0 0 1 11.5 42.1 188 188 0 0 1-3.4 44.5 208 208 0 0 0-3 36.2c0 9.7.5 19.6 3.3 28.2a60 60 0 0 0 2.2 6l5.6 11.4 4.4 5.7 8.7 9.5c3.7 3.6 7.4 6.3 11.3 8a93 93 0 0 0 13 4.6 54.3 54.3 0 0 0 21.6 1.9c13.6-2.1 27.4-4 40.9-7l-4 3a79 79 0 0 1-14.4 11.3 87.9 87.9 0 0 1-69 10.4 76 76 0 0 1-29-14.4 89.2 89.2 0 0 1-30.1-42l-1.8-4.8c-3.7-15-5.2-28.8-4.6-41.3a357 357 0 0 1 4-32.8c2.3-15.2 4.5-30.8 1.7-46.4a38 38 0 0 0-19-27 49 49 0 0 0-29.3-6.1c-6.7.5-13 2.6-18.7 6.3a79.1 79.1 0 0 0-25 25.8 189 189 0 0 0-15.4 32c-3.8 10.5-6.4 22-7.7 34.8-2 18.8-1.6 37.2 1.3 55.3 1 5.8 2.3 11.2 4 16.5a159.6 159.6 0 0 0 51 79.8 188 188 0 0 0 50.2 27.6 212 212 0 0 0 103 9.7c33.3-5 64.4-19.5 89.8-41.2a158.6 158.6 0 0 0 52.7-103.5 157 157 0 0 0-7.6-65.4c-3.3-9.3-7-18-11.1-26.2-1-1.9-2-3.5-3.3-4.9a.6.6 0 0 0-1 .1 638.8 638.8 0 0 1-19.8 33.7c-3.6 5.2-6.1 12.3-11 16.6-2.1 3.8-2 2-2 3v18.5-101.4c1.4-1.4 1.8-2.7 2.8-5a310.4 310.4 0 0 0 24.4-75.4 315.4 315.4 0 0 0 3-81c-.1-.6.4-1 1-.7 1.9 1 8.3 4.3 19 10.2 13.6 7.4 26.2 16 37.7 25.5a1 1 0 0 0 1.5-.4c.4-1.6.7-3.6.7-6a326.4 326.4 0 0 0-11.2-94.6 378.7 378.7 0 0 0-28.6-73.3c-1.7-3.2-2.9-6.5-4.4-9.7-.3-.5.1-1 .7-1 6.1.6 12.3 1 18.5 1.5a215 215 0 0 1 26.8 5.8l32.4 10.9c.5.2 1-.3 1-.8-1.2-6.7-3-13.7-5.5-21a330.5 330.5 0 0 0-23.6-54.1 479.5 479.5 0 0 0-21-31.3c-3.8-5.3-8-10.3-12.4-15-2.4-2.6-4.6-5.4-6.7-7.4a892.3 892.3 0 0 0-41.8-40 .6.6 0 0 1 .3-.9 265 265 0 0 0 41.6-13.3 99.8 99.8 0 0 0 17-9.4c1.1-.7 2.6-2 4.6-3.8l12.7-10.7c.3-.2.2-.6-.2-.7-13-3.7-25.7-8.8-38.1-15.3-3.6-1.9-7.9-4.4-12.8-7.7l-12.4-8.4a223.5 223.5 0 0 1-48-47.6 928 928 0 0 0-35-44.3 261.8 261.8 0 0 0-66.5-56.6.4.4 0 0 0-.7.4 312 312 0 0 1 3.5 37.8c0 .7.3 1.9.8 3.5a5 5 0 0 0-.4 2.3 595 595 0 0 1-1.7 81.2c-1 11.7-2.5 21.3-4.5 28.8a3496 3496 0 0 1-86.4 22.5l-4-2.6a476.4 476.4 0 0 0-14.7-12 260.5 260.5 0 0 0-32.1-20.4 326 326 0 0 0-33.7-15.6 688 688 0 0 0-37.4-13 1 1 0 0 1-.7-1.6c6.3-12.2 15.4-26.5 20.2-34.9 3-5.1 7-11.7 12-19.7a984 984 0 0 0 18-29.1c5.6-9.2 11.6-18.1 16.4-25.6l18.3-29.9c11.4-18.6 22-34.3 34.6-54.1 0-.1 0-.3-.2-.2-3.8 3.2-6 5.8-9.6 8a679 679 0 0 0-80.9 75.2 691.7 691.7 0 0 0-66.6 87.8c-2.3 3.4-4 7.6-6.1 10-.8 1-2 1.4-3.5 1.1a542.3 542.3 0 0 0-77.5-12.4 925.8 925.8 0 0 0-41.6-2.5A580 580 0 0 0 556.7 372c-1.9.4-3.3-.1-4.3-1.7a682.5 682.5 0 0 0-65.3-88.7 625 625 0 0 0-75.4-73.1c-6.9-5.8-13.8-11-20.2-16.8-.3-.3-.7 0-.6.3 0 .4.2.8.4 1 5.5 8.5 11 18 16.9 27 4 6.2 7.4 11 12.3 18.9l22 35c5.3 8.4 9.8 15.8 13.5 22 11 18.6 22.5 36.2 32.3 52.6l18.4 30.7c.9 1.4 1.7 3 2.4 4.5.2.3 0 .8-.4 1-9 2.8-18.5 6-28.4 9.6a332.8 332.8 0 0 0-62.6 30.8 229.9 229.9 0 0 0-30.7 23.6c-2-.3-4.5-.8-7.3-1.5l-34.8-9c-11.3-3.1-26-6.6-38-10a57 57 0 0 0-7.5-1.7c-.9-5.1-1.5-8.7-1.7-10.8a910 910 0 0 1-2.7-28.6 591 591 0 0 1-1.6-73c.3-3.3.3-3.7.3-5.3a294 294 0 0 1 3.7-36.2c0-.5-.5-.8-1-.5a245 245 0 0 0-43.6 33 487.6 487.6 0 0 0-16.6 17c-16.7 18.6-30 36.5-47.7 59.8a236.6 236.6 0 0 1-63.5 53.4 126 126 0 0 1-13.1 6.3c-11.7 5-17.6 7.8-27.2 10-.6 0-.8.7-.4 1.1a86 86 0 0 0 14.2 11.8 34 34 0 0 0 7.5 5.7 206.5 206.5 0 0 0 54.2 20c.3.4.2.8-.1 1a504.7 504.7 0 0 0-55.4 55.4 266 266 0 0 0-42.5 70.8 230.2 230.2 0 0 0-12.6 42.4c0 .5.4.9.9.7l31.8-11 7.7-1.8c12.7-3.1 25.4-5 38-5.3.4 0 .7.4.5.7-4.8 10-8.7 17.8-11.8 23.5A290 290 0 0 0 108 688c-9.3 24-16 48-19.8 71.7a301.6 301.6 0 0 0-3.4 67.2c0 .5.5.7.9.5l14-10a307.6 307.6 0 0 1 43.6-25.2c.5-.1.9.2.8.7-1.9 21.4-1.7 42.7.6 63.9a290 290 0 0 0 10.5 49c4.3 14.8 10 29.6 17 44.2.4 1 1 1.7 1.9 2l-.3 84.1-1-1.4-.9-1.6a431.6 431.6 0 0 1-47.6-89.1 281.7 281.7 0 0 1-11-34.8 623 623 0 0 1-6.8-31.5c-.5-2.7-.4-5.3-.8-7.8-.2-1.5-.7-3-1.6-2.5-2.1.9-3.5 2.8-5 4.4-15.8 17-28.1 30.7-37 40.8a25 25 0 0 1-3 2.8c-.3.2-.7 0-.8-.2-1.2-3.6-2.2-6.8-3-10a434.2 434.2 0 0 1-12.2-80V798c0-3.4.2-6.5.6-9.5.6-4.1.2-8 .8-12.8 2.6-22.5 7-45.6 13.4-69.2a5 5 0 0 0 0-2.3.9.9 0 0 0-1.2-.6c-8.4 4.4-13.5 6.8-21 11.3-14 8.3-22.2 13.5-33.6 19.2-.4.2-1 0-1-.5v-23.3c.1-4.6 1-8.2.9-12.2 0-1 0-2.6.3-5 1-9.2 2.2-17.7 3.4-25.2A293.5 293.5 0 0 1 28.9 590l6.1-13a290 290 0 0 1 49.2-69.8c.6-.6.5-1.6-.2-2a155.5 155.5 0 0 1-37-31.9c-6-6.8-11.1-14.4-15.6-22.7a1484 1484 0 0 1-14.3-27.3c-.2-.3 0-.8.4-1l3.3-1 18.8-2.5a165.6 165.6 0 0 0 111.1-56.6c5.3-5.9 9.8-11.2 13.4-16.1 10.3-13.9 18.8-24.8 25.3-33a378 378 0 0 1 51.5-52.7 318.1 318.1 0 0 1 62.2-37.3c.8-.4 1.5-1.2 1.7-2.2 2.6-11.6 4.2-22.5 7-33.6l5.6-21.8c2.5-9 7.2-23.7 14-44.3 1-3.1 2.3-6 4-9a1 1 0 0 1 1-.3 103 103 0 0 1 9.4 4.3 452 452 0 0 1 51.6 31.1c17 11 33.1 23 48.5 36.1 1 1 2.2.8 3.4-.6A262 262 0 0 1 613 91.5c3.3-.5 7.2-.5 10.7-1.4h1a1174 1174 0 0 1 11.2-.4c8.2-.7 15-1 20.7-.5 7.6.5 13.9.8 19 .9.2 0 .4.3.3.6l-19 44.8c-.2.4.2 1 .7.8 1.3-.2 2.1-.4 2.6-.7a380.1 380.1 0 0 1 67.3-31c15-5 32.7-9 53-12 4.4-.7 9.2-.5 13.8-1.5l.6-.1h28.3c3.1.8 6.6 1.1 10.4 1 .6 0 1.2 0 1.8.2 3.6 1 7.8.8 12.2 1.4a1018.2 1018.2 0 0 1 37 6.2c.3 0 .5.5.2.8a701.5 701.5 0 0 0-35 39.3c-.3.4 0 1 .6 1a40.4 40.4 0 0 0 8.5-1h20.3c2.6 0 5 .2 7.4.6 1 .1 3.4.4 7.3.6a272.2 272.2 0 0 1 49.4 8.8c6.4 1.5 11.6 3.4 17.1 5.3 1 .4 2.2.3 3.2-.3 11.3-7.5 24.6-17 37.5-24.5a675.2 675.2 0 0 1 32.6-17.9c1-.5 2-.6 2.8-.2.4.2.6.4.7.7a51 51 0 0 1 2.5 5.7c6.7 20 11.3 34.8 14 44.4a509 509 0 0 1 12.7 54.6c.5 3 2 5.2 4.6 6.3a284.5 284.5 0 0 1 43.3 23.8 257 257 0 0 1 38 31.8c13.2 13 23.2 24 30 33L1213 353c5.7 7.5 13.3 15.5 23 24.2a166.3 166.3 0 0 0 93.9 41.5c8.7 1.1 16 1.8 23.3 3.3.8.2 1.2 1 1 1.7a72 72 0 0 1-3.5 8l-9.8 18.8c-5.4 10-11.9 19-19.5 27.3a156.9 156.9 0 0 1-32.9 27.2c-.6.4-.7 1.3-.3 1.8l2.4 2.8a431 431 0 0 1 27.7 36 335.6 335.6 0 0 1 36.3 73.4c3 8.6 6 19.2 8.7 31.8a382.6 382.6 0 0 1 7.6 63c0 7.7.1 13.3.4 17v.2l-.5 2.5c0 .4-.5.7-1 .5l-54.7-31.1c-.6-.4-1.5 0-1.7.7l.1.8c4.5 16.9 8.7 34.5 11.5 52.1a355.6 355.6 0 0 1 .4 103.5c-2.5 17.7-6 34.9-10.3 51.5-.4 1.5-1 2.8-1.5 4-.1.2-.5.3-.7 0zM499 232.5c16 17.6 26 28.8 29.8 33.5a938.2 938.2 0 0 1 43 59.1 2 2 0 0 0 2 1 624 624 0 0 1 143.6-9.5c29 1.4 56 4.6 81 9.7.3 0 .6 0 1-.2.8-.5 1.6-1.3 2.3-2.3 10.3-17 21.2-30.8 35.1-48.7a611.1 611.1 0 0 1 54.2-58.8l9.8-9.5c3.7-3.6 6.9-6.6 9.7-9 5.6-4.6 9.5-7.5 11.1-9.6.4-.5.2-1-.4-1.2a233.5 233.5 0 0 0-91.2-2.1 367 367 0 0 0-38 9.1c-5.6 1.8-12.3 3.7-20.3 5.7a.5.5 0 0 1-.6-.6 136.3 136.3 0 0 1 15.4-41c4.1-8 9.6-15.1 14.3-22l1.2-2c.3-.5-.1-1-.7-1a140 140 0 0 0-23.6 1.8 260 260 0 0 0-99.4 38.2 626.2 626.2 0 0 0-42.2 29.2l-19.4 16.4a16 16 0 0 1-3.6 2.3c-.3.1-.6 0-.7-.4a161.7 161.7 0 0 1 2.1-86 .5.5 0 0 0-.5-.6c-2 0-4 .2-6 .6-42 8-78.1 26.5-108.6 55.5a304.6 304.6 0 0 0-20.3 21.3 1 1 0 0 0 0 1.4zm-148.5-25.3A980.4 980.4 0 0 0 341 255c-1.3 8.4-3 22.4-5 42.1-1.1 9.7-1.2 19.6-1.7 32.1a428.8 428.8 0 0 0 8 103.3c0 .1.3.2.4 0 19.7-17.7 42-36 64.6-49.3a351.7 351.7 0 0 1 39.9-20c.3 0 .5-.5.3-.8l-7.1-12.4-25.4-41.6c-5.5-9-12.5-21.3-18.9-31.5a2531.2 2531.2 0 0 0-45-69.6c-.3-.3-.5-.3-.8-.1zm670.5.7-.7.8c-16.5 25.2-24.4 36.8-37 57.5a13854 13854 0 0 0-58.5 95.9c0 .2 0 .5.3.6 5.2 2.7 10.9 5.4 16.8 8.2a256.4 256.4 0 0 1 48.7 29.6c10 7.8 24.3 18.6 34 27.6l4.5 4.5c.2.3.6.1.7-.2.8-5.4 2.2-10.8 3-16.2 5.2-33.8 6.7-68 4.4-102.5-1.3-20-3-37.7-5-53-2.4-17.2-7.5-39-10.5-52.6 0-.3-.5-.4-.7-.2z" style="display:inline"/></svg>