<?xml version="1.0" encoding="UTF-8" standalone="no"?>
<!DOCTYPE svg PUBLIC "-//W3C//DTD SVG 1.1//EN" "http://www.w3.org/Graphics/SVG/1.1/DTD/svg11.dtd">
<svg xmlns="http://www.w3.org/2000/svg" version="1.1" viewBox="0.00 0.00 1372.00 1372.00">
<g stroke-width="2.00" fill="none" stroke-linecap="butt">
<path stroke="#f26d0b" vector-effect="non-scaling-stroke" d="
  M 1269.12 868.28
  Q 1269.34 867.38 1267.54 866.21
  A 0.77 0.76 21.6 0 0 1266.37 866.71
  Q 1266.16 867.87 1266.70 868.95"
/>
<path stroke="#f26d0b" vector-effect="non-scaling-stroke" d="
  M 1266.17 872.88
  Q 1264.21 875.88 1265.80 877.56"
/>
<path stroke="#f26d0b" vector-effect="non-scaling-stroke" d="
  M 1295.53 1053.78
  Q 1294.62 1065.53 1295.42 1077.07"
/>
<path stroke="#7b5447" vector-effect="non-scaling-stroke" d="
  M 908.20 1195.06
  Q 901.07 1186.73 899.30 1184.19
  Q 890.84 1172.05 883.67 1159.10
  Q 883.39 1158.60 883.03 1158.51"
/>
<path stroke="#876a44" vector-effect="non-scaling-stroke" d="
  M 883.03 1158.51
  Q 883.12 1158.01 882.82 1157.41
  Q 879.09 1149.90 876.85 1146.16
  Q 874.00 1141.38 869.86 1128.62
  Q 867.21 1120.44 864.10 1107.60
  Q 861.37 1096.30 860.18 1086.18
  Q 857.09 1059.70 859.58 1035.75
  Q 860.54 1026.49 864.03 1008.30
  Q 864.70 1004.85 865.50 1002.26
  Q 866.45 999.22 867.07 996.25
  A 4.51 4.30 -28.3 0 1 867.38 995.30
  Q 869.02 991.69 869.14 991.00
  Q 869.63 988.28 870.03 987.51"
/>
<path stroke="#9c7f3f" vector-effect="non-scaling-stroke" d="
  M 870.03 987.51
  Q 871.89 985.67 871.81 982.79
  Q 871.79 982.10 871.46 981.95
  A 0.56 0.37 26.0 0 1 871.11 981.36
  Q 871.49 980.68 871.87 980.55
  C 872.74 980.24 873.11 979.00 873.55 978.62
  A 1.35 0.11 -23.9 0 1 874.39 978.16
  Q 874.79 977.97 875.18 977.00
  Q 876.56 973.58 876.74 972.99
  A 0.04 0.04 0.0 0 0 876.66 972.96
  L 875.18 975.50
  A 0.33 0.31 -72.7 0 1 874.89 975.66
  L 874.88 975.66
  A 0.23 0.22 -66.5 0 1 874.77 975.37
  L 878.26 966.47"
/>
<path stroke="#876a44" vector-effect="non-scaling-stroke" d="
  M 878.26 966.47
  Q 882.82 958.91 886.88 951.04
  Q 886.94 950.93 888.64 947.98
  Q 890.30 945.09 890.66 942.01"
/>
<path stroke="#9c7f3f" vector-effect="non-scaling-stroke" d="
  M 890.66 942.01
  Q 891.73 941.70 892.65 940.07
  A 2.14 2.06 -2.8 0 1 893.29 939.39
  Q 895.41 938.01 896.73 935.39
  A 2.82 2.65 81.9 0 1 897.21 934.71
  Q 907.68 923.94 912.43 919.19
  Q 914.43 917.19 920.56 913.13
  A 1.92 1.74 -81.5 0 0 920.84 912.90
  L 922.20 911.50
  A 1.98 1.96 -78.0 0 1 922.87 911.06
  Q 924.75 910.32 925.62 909.24
  Q 926.13 908.62 926.59 908.42
  Q 929.67 907.13 931.33 905.56
  A 2.43 2.38 13.3 0 1 932.21 905.03
  Q 934.05 904.37 934.49 904.08
  Q 935.60 903.36 937.08 902.64
  Q 951.23 895.76 969.26 894.93
  Q 1010.16 893.05 1036.86 920.52
  Q 1043.99 927.86 1047.99 935.73
  C 1054.49 948.56 1058.70 962.58 1059.39 977.83
  Q 1059.80 986.91 1059.33 996.00
  Q 1059.29 996.65 1057.94 1009.18
  Q 1057.35 1014.66 1056.03 1022.27
  Q 1052.94 1040.01 1052.98 1058.50
  C 1053.00 1068.23 1053.55 1078.12 1056.34 1086.69
  Q 1057.93 1091.54 1058.52 1092.71
  Q 1061.10 1097.80 1064.14 1104.07"
/>
<path stroke="#7b5447" vector-effect="non-scaling-stroke" d="
  M 1064.14 1104.07
  Q 1065.02 1106.46 1067.94 1108.84
  A 0.70 0.70 0.0 0 1 1068.17 1109.59
  Q 1068.04 1110.00 1068.42 1110.14
  A 0.04 0.03 11.7 0 0 1068.47 1110.11
  Q 1068.46 1109.99 1068.42 1109.85
  A 0.04 0.04 0.0 0 1 1068.49 1109.81
  Q 1076.40 1118.51 1077.19 1119.28
  Q 1082.71 1124.70 1088.46 1127.29
  Q 1094.16 1129.85 1101.55 1131.91
  Q 1112.91 1135.09 1123.11 1133.80
  Q 1139.58 1131.72 1160.52 1127.27
  Q 1160.99 1127.17 1162.24 1127.09
  Q 1163.13 1127.03 1163.98 1126.80"
/>
<path stroke="#f38510" vector-effect="non-scaling-stroke" d="
  M 1163.98 1126.80
  L 1159.98 1129.76
  Q 1159.95 1129.79 1159.92 1129.82
  Q 1151.87 1137.49 1145.60 1141.10
  C 1135.51 1146.94 1122.80 1151.80 1111.40 1153.49
  Q 1094.47 1156.01 1076.68 1151.52
  Q 1060.66 1147.47 1047.61 1137.06
  C 1033.81 1126.05 1022.77 1111.71 1017.49 1095.08
  A 2.81 2.76 37.8 0 1 1017.36 1094.12
  Q 1017.40 1093.21 1017.12 1092.05
  A 0.30 0.29 -10.0 0 0 1016.80 1091.83
  Q 1016.70 1091.84 1016.69 1091.84
  A 0.63 0.63 0.0 0 1 1016.20 1091.33
  Q 1016.08 1090.63 1015.71 1090.31"
/>
<path stroke="#f4a065" vector-effect="non-scaling-stroke" d="
  M 1015.71 1090.31
  Q 1010.20 1067.77 1011.09 1049.01
  Q 1011.55 1039.09 1015.06 1016.20
  C 1017.40 1000.97 1019.61 985.38 1016.76 969.75
  Q 1013.54 952.05 997.81 942.73
  C 988.89 937.43 978.93 935.93 968.49 936.69
  Q 958.46 937.42 949.78 943.04
  Q 934.41 952.97 924.81 968.78
  Q 915.75 983.69 909.45 1000.89
  Q 903.73 1016.49 901.68 1035.57
  Q 898.64 1063.78 903.04 1090.91
  Q 904.43 1099.52 907.07 1107.35"
/>
<path stroke="#f38510" vector-effect="non-scaling-stroke" d="
  M 907.07 1107.35
  Q 908.83 1115.05 912.55 1123.99
  C 922.94 1148.97 937.59 1170.11 958.04 1187.10
  Q 968.13 1195.49 982.02 1202.93
  Q 996.16 1210.51 1008.20 1214.74
  Q 1058.25 1232.36 1111.25 1224.49
  C 1144.48 1219.56 1175.57 1205.02 1200.99 1183.27
  C 1223.72 1163.82 1239.51 1137.28 1248.19 1108.98
  Q 1252.58 1094.66 1253.70 1079.77
  C 1255.42 1056.92 1253.46 1035.20 1246.06 1014.41
  Q 1241.11 1000.50 1234.99 988.24
  Q 1233.55 985.34 1231.70 983.31
  A 0.65 0.64 -52.1 0 0 1230.66 983.44
  Q 1222.85 997.92 1210.88 1017.14
  Q 1208.93 1020.26 1200.78 1032.83
  A 3.34 3.22 -2.3 0 1 1199.92 1033.73
  Q 1197.92 1035.19 1197.91 1036.77
  Q 1197.85 1045.99 1197.92 1055.21"
/>
<path stroke="#7b5447" vector-effect="non-scaling-stroke" d="
  M 1197.92 1055.21
  L 1197.87 953.83"
/>
<path stroke="#f26d0b" vector-effect="non-scaling-stroke" d="
  M 1197.87 953.83
  Q 1199.47 951.79 1200.10 949.37
  A 0.03 0.02 -31.7 0 1 1200.11 949.35
  L 1200.42 949.15
  A 1.01 0.98 -5.6 0 0 1200.74 948.77
  Q 1209.03 929.81 1211.71 922.47
  Q 1220.23 899.17 1225.10 873.37
  C 1228.59 854.83 1229.44 833.73 1229.21 813.28
  Q 1229.07 800.72 1228.03 792.36
  A 0.70 0.70 0.0 0 1 1229.03 791.65
  Q 1231.98 793.09 1248.11 801.90
  Q 1268.50 813.03 1285.77 827.44
  A 0.94 0.94 0.0 0 0 1287.27 826.98
  Q 1287.96 824.64 1288.01 821.00
  C 1288.39 797.31 1286.97 776.09 1282.73 753.51
  Q 1279.63 736.96 1276.78 726.35
  Q 1273.04 712.40 1266.17 693.81
  Q 1257.66 670.78 1248.20 653.13
  C 1246.50 649.94 1245.31 646.62 1243.76 643.41
  A 0.72 0.71 -10.4 0 1 1244.47 642.39
  Q 1253.70 643.24 1263.01 643.91
  Q 1268.73 644.32 1289.80 649.70"
/>
<path stroke="#f38510" vector-effect="non-scaling-stroke" d="
  M 1289.80 649.70
  L 1322.21 660.60
  A 0.71 0.70 -85.5 0 0 1323.13 659.81
  Q 1321.42 649.81 1317.70 638.79
  C 1311.41 620.13 1303.51 601.70 1294.07 584.68
  Q 1286.69 571.37 1276.37 557.82
  C 1275.57 556.77 1275.42 555.57 1274.55 554.96
  Q 1274.16 554.68 1273.18 553.35
  Q 1267.35 545.48 1260.69 538.34
  C 1258.29 535.77 1256.06 533.01 1254.01 530.97
  Q 1232.99 510.07 1226.07 503.92
  Q 1218.73 497.39 1212.24 491.08
  A 0.56 0.56 0.0 0 1 1212.51 490.13
  Q 1233.89 485.17 1254.06 476.81
  Q 1262.29 473.39 1271.17 467.44
  Q 1272.76 466.37 1275.72 463.63"
/>
<path stroke="#f4a065" vector-effect="non-scaling-stroke" d="
  M 1275.72 463.63
  L 1288.39 452.91
  A 0.44 0.43 32.4 0 0 1288.22 452.16
  Q 1268.72 446.64 1250.07 436.92
  Q 1244.67 434.11 1237.33 429.23
  Q 1228.02 423.04 1224.95 420.81
  Q 1197.21 400.63 1176.81 373.20
  Q 1158.28 348.28 1141.92 328.88
  C 1122.70 306.08 1100.35 287.13 1075.39 272.29
  A 0.44 0.44 0.0 0 0 1074.73 272.74
  Q 1077.62 291.32 1078.25 310.49
  Q 1078.28 311.54 1079.01 314.03"
/>
<path stroke="#f38510" vector-effect="non-scaling-stroke" d="
  M 1079.01 314.03
  Q 1078.55 315.12 1078.61 316.25
  Q 1080.55 356.93 1076.93 397.50
  Q 1075.38 414.99 1072.41 426.29"
/>
<path stroke="#7b5447" vector-effect="non-scaling-stroke" d="
  M 1072.41 426.29
  Q 1055.45 430.88 1038.48 435.39
  Q 1037.83 435.56 1037.39 435.83
  A 1.89 1.80 -61.6 0 1 1036.53 436.11
  Q 1033.31 436.29 1029.63 437.67
  A 2.41 2.20 -54.0 0 1 1029.00 437.80
  Q 1027.24 437.93 1022.41 439.66
  Q 1021.51 439.99 1017.94 440.58
  A 0.20 0.18 -81.7 0 0 1017.82 440.68
  Q 1017.76 440.83 1017.72 440.91
  A 0.72 0.39 -1.7 0 1 1017.32 441.14
  L 985.97 448.83"
/>
<path stroke="#f38510" vector-effect="non-scaling-stroke" d="
  M 985.97 448.83
  Q 982.89 446.86 982.08 446.18
  Q 970.79 436.74 967.35 434.16
  Q 964.53 432.04 951.62 423.47
  Q 943.54 418.10 935.25 413.81
  Q 914.69 403.15 901.54 398.20
  Q 882.75 391.11 864.06 385.12
  A 1.10 1.09 22.7 0 1 863.42 383.58
  C 869.74 371.38 878.80 357.10 883.64 348.71
  Q 888.09 341.00 895.68 329.00
  Q 904.26 315.45 913.66 299.85
  C 919.20 290.65 925.21 281.79 930.01 274.26
  Q 931.66 271.66 948.32 244.42
  C 959.72 225.77 970.24 210.07 982.89 190.29
  A 0.13 0.13 0.0 0 0 982.70 190.12
  C 978.92 193.32 976.66 195.92 973.07 198.19
  Q 971.03 199.49 960.39 208.39
  Q 921.62 240.82 892.17 273.40
  Q 868.92 299.12 843.94 333.95
  Q 839.34 340.36 825.60 361.07
  C 823.34 364.49 821.51 368.65 819.50 371.13
  Q 818.23 372.70 816.05 372.21
  C 790.67 366.49 765.48 361.92 738.53 359.79
  Q 713.28 357.79 696.92 357.26
  Q 671.13 356.43 641.26 359.03
  Q 593.93 363.14 556.76 372.05
  Q 553.87 372.74 552.40 370.37
  Q 540.49 351.19 525.82 330.42
  Q 511.27 309.81 487.12 281.63
  C 463.89 254.51 438.66 231.11 411.69 208.57
  C 404.84 202.84 397.88 197.56 391.50 191.76
  A 0.36 0.35 16.2 0 0 390.91 192.08
  Q 391.03 192.72 391.32 193.16
  C 396.85 201.58 402.29 211.16 408.16 220.07
  C 412.26 226.29 415.63 231.10 420.54 238.98
  Q 432.83 258.74 442.44 273.95
  Q 450.48 286.65 456.01 295.99
  C 467.07 314.64 478.49 332.18 488.30 348.57
  Q 504.75 376.04 506.72 379.29
  Q 507.90 381.24 509.09 383.75
  A 0.72 0.71 -21.5 0 1 508.66 384.73
  Q 495.12 389.00 480.32 394.36
  C 457.80 402.52 437.97 412.75 417.73 425.24
  Q 404.06 433.67 386.99 448.79"
/>
<path stroke="#7b5447" vector-effect="non-scaling-stroke" d="
  M 386.99 448.79
  Q 383.92 448.38 379.68 447.31
  Q 361.81 442.78 344.91 438.21
  C 333.57 435.15 318.83 431.65 306.85 428.26
  Q 302.98 427.16 299.42 426.62"
/>
<path stroke="#f38510" vector-effect="non-scaling-stroke" d="
  M 299.42 426.62
  Q 298.04 418.92 297.67 415.75
  Q 296.56 406.34 294.97 387.18
  Q 291.97 351.04 293.39 314.26"
/>
<path stroke="#f4a065" vector-effect="non-scaling-stroke" d="
  M 293.39 314.26
  Q 293.22 313.15 293.44 311.55
  Q 293.72 309.58 293.74 308.87
  Q 294.47 290.73 297.36 272.74
  A 0.59 0.59 0.0 0 0 296.46 272.15
  C 280.87 281.90 265.95 292.20 252.77 305.26
  Q 240.38 317.53 236.19 322.20
  C 219.48 340.84 206.12 358.69 188.46 381.96
  Q 183.93 387.92 176.37 395.61
  Q 153.31 419.08 124.95 435.32
  Q 119.11 438.66 111.90 441.74
  C 100.23 446.72 94.32 449.53 84.66 451.63
  A 0.70 0.70 0.0 0 0 84.31 452.80
  Q 90.69 459.39 98.48 464.58"
/>
<path stroke="#f38510" vector-effect="non-scaling-stroke" d="
  M 98.48 464.58
  Q 101.95 468.04 105.98 470.28
  C 122.95 479.69 140.73 485.47 159.77 489.97
  Q 160.08 490.04 160.22 490.27
  Q 160.60 490.92 160.07 491.37
  C 141.02 508.00 121.40 526.68 104.70 546.69
  Q 77.97 578.70 62.21 617.47
  Q 53.95 637.79 49.61 659.87
  A 0.66 0.66 0.0 0 0 50.47 660.62
  L 82.33 649.63"
/>
<path stroke="#f26d0b" vector-effect="non-scaling-stroke" d="
  M 82.33 649.63
  Q 86.44 648.73 90.00 647.83
  Q 109.04 643.07 128.04 642.48
  A 0.52 0.52 0.0 0 1 128.53 643.22
  Q 121.28 658.17 116.72 666.73
  Q 114.82 670.30 108.05 687.85
  Q 93.97 724.29 88.17 759.72
  Q 82.73 792.93 84.79 826.92
  A 0.56 0.56 0.0 0 0 85.67 827.35
  Q 95.05 820.80 99.70 817.41
  C 112.51 808.07 127.35 800.17 139.95 793.70
  Q 142.14 792.58 143.33 792.22
  A 0.62 0.62 0.0 0 1 144.13 792.87
  Q 141.27 824.96 144.67 856.77
  C 146.41 873.12 150.48 889.31 155.22 905.85
  Q 161.58 928.01 172.18 950.03
  Q 172.87 951.46 174.09 952.06"
/>
<path stroke="#7b5447" vector-effect="non-scaling-stroke" d="
  M 174.09 952.06
  L 173.81 1036.11"
/>
<path stroke="#35997c" vector-effect="non-scaling-stroke" d="
  M 878.26 966.47
  Q 875.81 970.23 874.18 974.42
  C 872.63 978.38 870.10 981.76 869.37 985.27
  Q 869.12 986.44 869.80 986.90
  Q 869.87 986.95 869.88 986.93
  A 0.02 0.02 0.0 0 1 869.92 986.93
  L 870.03 987.51"
/>
<path stroke="#818a51" vector-effect="non-scaling-stroke" d="
  M 985.97 448.83
  Q 934.11 463.04 900.71 472.98
  Q 853.04 487.17 805.90 511.10
  C 793.33 517.48 782.02 524.56 771.29 531.55
  C 736.56 554.17 706.33 585.20 685.95 622.13
  A 0.28 0.28 0.0 0 1 685.45 622.11
  Q 683.43 617.69 681.40 614.38
  Q 672.25 599.50 661.22 585.32
  Q 651.28 572.53 636.97 559.59
  Q 621.58 545.69 608.22 536.56
  Q 588.60 523.15 575.98 516.32
  Q 556.59 505.81 544.65 500.39
  Q 501.79 480.93 455.68 468.09
  Q 421.90 458.67 386.99 448.79"
/>
<path stroke="#fad56f" vector-effect="non-scaling-stroke" d="
  M 1015.71 1090.31
  Q 1016.56 1092.35 1015.35 1093.60
  C 1003.79 1105.59 987.02 1114.10 970.16 1117.83
  Q 965.16 1118.94 958.27 1119.01
  Q 948.48 1119.10 946.28 1118.83
  Q 925.95 1116.35 907.07 1107.35"
/>
<path stroke="#fad56f" vector-effect="non-scaling-stroke" d="
  M 1275.72 463.63
  C 1266.65 464.60 1256.76 463.23 1248.18 460.54
  C 1234.61 456.27 1220.93 449.66 1209.49 441.92
  C 1196.45 433.09 1184.15 420.70 1173.56 409.01
  Q 1167.69 402.52 1150.11 380.65
  Q 1130.48 356.23 1105.08 332.93
  Q 1096.79 325.32 1087.04 318.46
  Q 1083.61 316.05 1079.01 314.03"
/>
<path stroke="#80724c" vector-effect="non-scaling-stroke" d="
  M 1198.15 531.54
  L 1197.87 953.83"
/>
<path stroke="#818a51" vector-effect="non-scaling-stroke" d="
  M 1197.92 1055.21
  L 1197.86 1119.40
  A 1.29 1.29 0.0 0 1 1196.81 1120.67
  L 1163.98 1126.80"
/>
<path stroke="#29847f" vector-effect="non-scaling-stroke" d="
  M 1064.14 1104.07
  Q 1068.24 1103.81 1072.47 1102.77
  Q 1078.84 1101.21 1080.67 1100.79
  C 1085.12 1099.78 1089.64 1098.34 1093.98 1097.48
  Q 1112.21 1093.86 1123.78 1091.40
  C 1134.29 1089.17 1145.82 1087.35 1155.90 1085.69
  A 1.13 1.12 85.2 0 0 1156.83 1084.58
  L 1156.80 574.43"
/>
<path stroke="#4f9b84" vector-effect="non-scaling-stroke" d="
  M 1156.80 574.43
  L 1156.58 548.74
  A 0.67 0.67 0.0 0 0 1156.00 548.09
  Q 1154.37 547.87 1152.04 548.33
  Q 1136.68 551.40 1120.44 555.44
  C 1090.36 562.93 1061.46 570.28 1032.68 579.76
  Q 1005.75 588.64 979.15 597.95
  Q 954.73 606.51 926.31 618.04
  Q 892.16 631.90 873.65 640.17
  Q 865.12 643.99 826.17 662.25
  C 811.19 669.28 798.23 676.29 784.73 682.79
  A 1.57 1.54 77.5 0 0 783.85 684.20
  L 784.07 713.03"
/>
<path stroke="#29847f" vector-effect="non-scaling-stroke" d="
  M 784.07 713.03
  Q 783.68 717.52 783.68 722.00
  Q 783.85 961.25 784.03 1200.85
  A 0.54 0.53 -11.6 0 0 784.78 1201.34
  C 794.01 1197.42 802.48 1192.93 812.15 1188.85
  Q 818.71 1186.07 825.26 1183.42"
/>
<path stroke="#146f84" vector-effect="non-scaling-stroke" d="
  M 825.26 1183.42
  Q 830.61 1181.62 835.73 1179.26
  Q 843.61 1175.61 846.02 1174.70
  C 861.27 1168.93 870.40 1165.76 879.93 1160.81
  A 1.51 1.51 0.0 0 0 880.61 1160.07
  L 881.33 1158.36
  A 0.51 0.50 22.1 0 1 881.98 1158.09
  L 883.03 1158.51"
/>
<path stroke="#80724c" vector-effect="non-scaling-stroke" d="
  M 174.09 952.06
  L 174.13 554.96"
/>
<path stroke="#35997c" vector-effect="non-scaling-stroke" d="
  M 890.66 942.01
  Q 882.33 947.50 877.57 953.29
  C 872.20 959.82 866.33 966.04 861.85 972.22
  Q 850.10 988.43 845.96 995.69
  Q 832.79 1018.78 824.08 1050.67
  C 821.83 1058.89 820.17 1070.09 819.28 1076.24
  Q 813.72 1114.41 819.52 1151.90
  C 820.93 1161.01 823.89 1173.23 826.05 1181.02
  Q 826.44 1182.43 825.26 1183.42"
/>
<path stroke="#f8a215" vector-effect="non-scaling-stroke" d="
  M 1289.80 649.70
  Q 1287.49 646.60 1286.86 644.88
  C 1283.39 635.40 1277.07 628.13 1271.17 620.00
  Q 1266.97 614.21 1261.01 607.73
  Q 1250.73 596.53 1248.13 593.87
  Q 1226.98 572.25 1201.80 555.20
  Q 1200.69 554.44 1200.24 554.31
  A 2.31 2.29 5.0 0 1 1199.48 553.41
  L 1199.05 552.48
  A 0.18 0.17 37.8 0 0 1198.72 552.52
  Q 1198.68 552.73 1198.63 552.86
  Q 1198.48 550.80 1198.40 548.74
  Q 1198.09 540.15 1198.15 531.54"
/>
<path stroke="#818a51" vector-effect="non-scaling-stroke" d="
  M 1198.15 531.54
  L 1198.12 499.05
  A 1.23 1.22 -5.3 0 0 1196.67 497.85
  L 1151.90 505.98
  A 3.04 3.04 0.0 0 1 1149.17 505.10
  L 1072.41 426.29"
/>
<path stroke="#fad56f" vector-effect="non-scaling-stroke" d="
  M 293.39 314.26
  Q 289.65 315.94 283.99 320.01
  Q 266.35 332.70 256.27 342.76
  Q 243.78 355.22 232.77 367.37
  C 223.61 377.50 214.85 389.05 207.34 398.34
  Q 197.81 410.12 184.84 423.59
  Q 178.88 429.78 166.32 439.39
  Q 160.97 443.48 152.30 447.97
  Q 142.27 453.16 137.57 455.32
  Q 134.24 456.85 132.03 457.54
  Q 130.77 457.94 126.41 459.56
  Q 117.32 462.93 107.16 464.06
  Q 106.26 464.17 102.82 464.22
  Q 100.64 464.26 98.48 464.58"
/>
<path stroke="#818a51" vector-effect="non-scaling-stroke" d="
  M 299.42 426.62
  L 221.52 506.22
  A 0.95 0.94 -62.0 0 1 220.66 506.49
  L 174.87 497.33
  A 0.79 0.78 -84.3 0 0 173.93 498.10
  L 174.13 554.96"
/>
<path stroke="#f8a215" vector-effect="non-scaling-stroke" d="
  M 174.13 554.96
  L 170.28 556.01
  A 2.96 2.84 19.6 0 0 169.48 556.37
  Q 162.72 560.66 155.53 566.29
  Q 142.27 576.66 132.26 585.74
  Q 123.77 593.42 107.07 612.08
  Q 104.69 614.73 91.61 632.59
  Q 85.26 641.27 82.33 649.63"
/>
<path stroke="#70c57c" vector-effect="non-scaling-stroke" d="
  M 1156.80 574.43
  Q 1156.22 576.45 1156.39 578.62
  A 1.34 1.33 -7.8 0 1 1155.31 580.03
  Q 1128.90 585.21 1104.21 591.75
  Q 1047.58 606.77 994.58 625.27
  C 979.62 630.49 960.39 637.98 946.68 642.91
  C 929.79 648.98 914.84 655.71 894.18 664.21
  Q 885.05 667.96 863.36 678.07
  C 844.67 686.77 830.67 692.49 814.57 700.89
  Q 803.20 706.83 786.14 715.11
  A 1.33 1.33 0.0 0 1 784.24 714.12
  L 784.07 713.03"
/>
<path stroke="#f38510" vector-effect="non-scaling-stroke" d="
  M 498.91 232.47
  Q 522.87 258.94 528.72 266.02
  Q 538.92 278.37 562.86 312.03
  Q 568.08 319.38 571.66 325.11
  A 2.05 2.05 0.0 0 0 573.78 326.04
  C 621.07 317.21 669.87 314.36 717.26 316.63
  Q 760.77 318.71 798.22 326.31
  A 1.46 1.44 -54.1 0 0 799.24 326.14
  Q 800.59 325.34 801.55 323.77
  C 811.93 306.78 822.76 293.00 836.70 275.15
  Q 844.28 265.45 852.55 256.07
  Q 870.83 235.34 890.91 216.34"
/>
<path stroke="#f4a065" vector-effect="non-scaling-stroke" d="
  M 890.91 216.34
  Q 895.85 211.62 900.72 206.82
  Q 906.19 201.41 910.43 197.86
  C 916.02 193.17 919.87 190.26 921.53 188.17
  A 0.74 0.74 0.0 0 0 921.13 186.99
  C 901.39 182.12 880.20 181.08 860.82 181.52
  Q 845.37 181.87 829.89 184.88
  Q 807.76 189.18 792.02 194.05
  Q 783.62 196.64 771.75 199.71
  A 0.54 0.54 0.0 0 1 771.09 199.07
  Q 774.43 182.89 781.42 168.14
  Q 782.80 165.23 786.48 158.11
  C 790.60 150.13 796.09 142.99 800.83 136.05
  Q 801.41 135.20 802.00 134.09
  A 0.74 0.74 0.0 0 0 801.35 133.01
  Q 790.08 132.96 777.69 134.95
  Q 725.00 143.39 678.34 173.10
  Q 661.81 183.62 651.25 191.01
  Q 640.49 198.54 636.05 202.31
  Q 619.55 216.32 616.67 218.67
  Q 614.74 220.25 613.08 220.98
  A 0.50 0.50 0.0 0 1 612.39 220.65
  Q 610.92 214.77 610.13 208.94
  C 607.27 188.08 605.98 166.77 611.23 146.49
  Q 613.15 139.09 614.49 134.70
  A 0.50 0.50 0.0 0 0 614.01 134.05
  Q 611.00 134.05 607.93 134.63
  Q 545.10 146.60 499.42 190.15
  Q 488.24 200.82 479.10 211.41
  A 1.04 1.04 0.0 0 0 479.15 212.83
  L 498.91 232.47"
/>
<path stroke="#fad56f" vector-effect="non-scaling-stroke" d="
  M 890.91 216.34
  Q 887.90 215.44 886.77 215.37
  Q 884.85 215.26 867.50 214.07
  Q 860.37 213.58 842.99 214.17
  C 836.59 214.38 829.51 215.77 824.09 216.26
  Q 818.26 216.79 810.03 218.57
  Q 792.71 222.32 783.04 225.19
  Q 781.53 225.64 769.85 229.17
  C 758.78 232.52 744.28 239.13 736.93 241.67
  Q 734.86 242.39 733.55 242.49
  A 0.53 0.53 0.0 0 1 732.99 241.83
  C 734.25 236.91 734.22 231.04 735.07 225.04
  Q 738.41 201.38 744.20 181.46
  Q 744.84 179.26 745.78 177.38
  A 0.68 0.68 0.0 0 0 744.99 176.42
  Q 730.99 180.24 718.67 184.99
  Q 709.48 188.53 695.47 195.33
  Q 685.60 200.11 673.45 207.94
  C 662.89 214.74 653.27 220.55 644.36 227.67
  Q 622.40 245.22 603.09 267.64
  A 0.61 0.61 0.0 0 1 602.13 267.60
  Q 598.30 262.31 595.70 256.29
  Q 591.44 246.48 588.74 239.72
  Q 577.90 212.57 578.13 183.75
  Q 578.16 180.50 578.95 177.31
  A 0.53 0.52 -3.0 0 0 578.26 176.69
  Q 557.31 184.34 539.16 196.40
  Q 526.77 204.63 521.02 210.32
  C 511.22 220.02 506.00 224.97 502.20 229.20
  Q 500.68 230.89 498.91 232.47"
/>
<path stroke="#f4a065" vector-effect="non-scaling-stroke" d="
  M 350.37 207.19
  Q 350.25 207.27 350.17 207.68
  Q 343.99 236.83 341.10 255.02
  Q 339.10 267.57 336.01 297.10
  C 334.99 306.83 334.92 316.65 334.40 329.25
  Q 332.23 381.98 342.46 432.45
  A 0.22 0.22 0.0 0 0 342.83 432.57
  C 362.53 414.79 384.76 396.52 407.35 383.25
  Q 425.60 372.54 447.29 363.28
  A 0.66 0.65 64.3 0 0 447.61 362.36
  Q 443.70 355.34 440.49 350.04
  Q 427.51 328.59 415.13 308.41
  C 409.63 299.44 402.56 287.07 396.21 276.90
  Q 374.38 241.97 351.12 207.33
  Q 350.82 206.88 350.37 207.19"
/>
<path stroke="#f4a065" vector-effect="non-scaling-stroke" d="
  M 1020.88 207.89
  Q 1020.50 208.18 1020.17 208.69
  C 1003.69 233.85 995.83 245.52 983.13 266.15
  Q 943.88 329.92 926.87 358.11
  Q 925.98 359.59 924.74 362.09
  A 0.49 0.49 0.0 0 0 924.96 362.75
  Q 932.87 366.74 941.84 370.94
  C 958.50 378.75 975.52 388.78 990.48 400.50
  C 1000.45 408.32 1014.82 419.10 1024.43 428.08
  Q 1027.25 430.71 1028.96 432.60
  A 0.42 0.42 0.0 0 0 1029.69 432.38
  C 1030.49 427.05 1031.92 421.65 1032.76 416.21
  Q 1040.50 365.51 1037.11 313.75
  Q 1035.14 283.62 1032.05 260.78
  C 1029.72 243.53 1024.61 221.63 1021.59 208.15
  A 0.45 0.45 0.0 0 0 1020.88 207.89"
/>
<path stroke="#81a5a5" vector-effect="non-scaling-stroke" d="
  M 662.65 670.13
  A 0.28 0.28 0.0 0 0 662.97 669.76
  Q 653.00 642.08 635.63 618.94
  Q 616.29 593.18 588.42 573.11
  Q 572.54 561.68 557.86 553.67
  Q 511.74 528.49 461.63 513.17
  Q 426.56 502.44 360.25 484.54
  Q 341.60 479.51 313.30 472.48
  A 0.84 0.82 28.8 0 0 312.50 472.70
  L 269.74 516.57
  A 0.65 0.65 0.0 0 0 270.05 517.66
  Q 306.16 526.45 342.21 537.34
  Q 375.79 547.50 428.18 566.71
  Q 452.18 575.51 480.80 587.77
  Q 516.22 602.93 532.70 610.58
  Q 560.74 623.59 597.02 641.73
  C 605.68 646.06 613.62 650.62 621.85 655.16
  Q 641.38 665.91 662.65 670.13"
/>
<path stroke="#81a5a5" vector-effect="non-scaling-stroke" d="
  M 710.43 669.49
  C 725.12 667.49 739.82 661.21 752.17 654.15
  Q 766.03 646.23 777.18 640.68
  C 801.10 628.80 826.33 616.26 852.58 604.62
  Q 878.69 593.05 885.43 590.19
  Q 991.44 545.24 1103.06 517.64
  A 0.57 0.57 0.0 0 0 1103.21 516.60
  Q 1101.56 515.65 1100.48 514.53
  Q 1079.88 493.35 1060.64 472.98
  A 2.01 2.00 -27.8 0 0 1058.74 472.40
  Q 1049.76 474.41 1040.19 476.97
  Q 974.01 494.63 922.87 509.61
  C 882.62 521.41 843.62 536.66 807.62 557.65
  C 779.95 573.79 754.93 594.50 736.37 619.35
  Q 724.46 635.31 715.25 655.13
  C 713.16 659.64 711.68 664.19 710.03 669.00
  A 0.37 0.37 0.0 0 0 710.43 669.49"
/>
<path stroke="#217ba7" vector-effect="non-scaling-stroke" d="
  M 215.08 579.97
  L 215.13 1084.31
  A 1.43 1.42 -85.5 0 0 216.33 1085.72
  C 234.86 1088.62 251.79 1092.04 270.63 1096.12
  C 294.21 1101.22 313.72 1106.44 339.27 1112.69
  Q 357.43 1117.14 376.60 1122.84
  Q 420.52 1135.92 455.49 1148.06
  Q 498.56 1163.01 543.02 1181.77
  Q 566.07 1191.49 587.43 1201.75
  A 0.40 0.39 -77.6 0 0 587.99 1201.39
  L 588.13 709.03"
/>
<path stroke="#4095b9" vector-effect="non-scaling-stroke" d="
  M 588.13 709.03
  L 588.14 683.29
  A 0.85 0.83 -78.2 0 0 587.65 682.52
  C 570.41 674.66 553.21 665.68 536.09 657.58
  Q 497.69 639.39 453.84 621.26
  Q 430.33 611.54 409.35 603.97
  C 372.72 590.76 342.50 580.30 314.83 572.22
  Q 292.53 565.70 249.68 554.85
  Q 233.42 550.73 216.12 547.74
  A 0.60 0.60 0.0 0 0 215.42 548.32
  L 215.08 579.97"
/>
<path stroke="#59b7d8" vector-effect="non-scaling-stroke" d="
  M 588.13 709.03
  L 587.99 714.99
  A 0.75 0.74 13.6 0 1 586.92 715.64
  C 570.80 707.91 555.91 699.18 540.10 691.97
  Q 496.30 672.00 481.63 665.66
  Q 444.02 649.42 403.13 634.23
  C 382.18 626.45 358.34 618.61 339.42 612.39
  Q 300.64 599.64 243.70 585.28
  Q 238.06 583.86 222.63 580.82
  C 220.21 580.35 217.62 580.27 215.08 579.97"
/>
<path stroke="#29847f" vector-effect="non-scaling-stroke" d="
  M 629.35 735.54
  L 629.14 1225.94
  A 1.53 1.53 0.0 0 0 629.91 1227.27
  Q 649.87 1238.68 672.23 1241.19
  Q 694.71 1243.72 713.49 1239.00
  Q 724.73 1236.17 739.26 1228.58
  Q 740.59 1227.88 740.63 1227.86
  Q 742.81 1226.79 742.79 1225.26
  Q 742.33 1185.01 742.42 1136.92
  C 742.54 1066.23 742.35 1039.62 742.52 964.25
  Q 742.73 872.87 742.68 752.50
  Q 742.68 743.00 742.76 733.44"
/>
<path stroke="#4f9b84" vector-effect="non-scaling-stroke" d="
  M 742.76 733.44
  L 742.47 704.10
  A 0.70 0.70 0.0 0 0 741.54 703.45
  C 709.10 714.66 675.20 716.58 641.92 706.84
  Q 634.43 704.65 629.90 703.14
  A 0.39 0.39 0.0 0 0 629.39 703.51
  L 629.35 735.54"
/>
<path stroke="#70c57c" vector-effect="non-scaling-stroke" d="
  M 742.76 733.44
  Q 742.32 735.29 741.33 735.61
  C 725.43 740.71 707.60 745.04 690.59 745.42
  Q 674.77 745.77 666.75 744.59
  Q 653.63 742.65 629.35 735.54"
/>
</g>
<path fill="#ed4f06" d="
  M 1269.12 868.28
  Q 1269.34 867.38 1267.54 866.21
  A 0.77 0.76 21.6 0 0 1266.37 866.71
  Q 1266.16 867.87 1266.70 868.95
  Q 1266.92 871.79 1266.17 872.88
  Q 1264.21 875.88 1265.80 877.56
  Q 1260.63 907.25 1250.89 935.23
  A 3.08 3.06 -55.6 0 0 1251.44 938.21
  Q 1269.24 959.33 1279.35 984.38
  Q 1290.40 1011.75 1294.47 1040.94
  Q 1294.83 1043.51 1295.07 1047.34
  Q 1295.27 1050.67 1295.53 1053.78
  Q 1294.62 1065.53 1295.42 1077.07
  Q 1295.05 1086.33 1293.47 1095.74
  Q 1290.80 1111.71 1286.97 1124.24
  Q 1277.43 1155.45 1258.44 1180.95
  Q 1253.57 1187.48 1246.78 1195.59
  C 1237.09 1207.16 1227.43 1215.56 1214.88 1225.39
  C 1196.97 1239.42 1175.13 1249.94 1154.16 1256.88
  C 1138.83 1261.96 1123.09 1266.01 1107.01 1267.52
  Q 1098.66 1268.30 1088.50 1268.86
  Q 1079.05 1269.39 1069.98 1268.74
  Q 1062.24 1268.20 1061.00 1268.13
  Q 1055.22 1267.83 1052.04 1267.43
  Q 1043.07 1266.32 1036.79 1265.34
  Q 1024.46 1263.41 1007.40 1258.32
  Q 959.40 1244.01 922.29 1210.46
  Q 917.32 1205.97 908.20 1195.06
  Q 901.07 1186.73 899.30 1184.19
  Q 890.84 1172.05 883.67 1159.10
  Q 883.39 1158.60 883.03 1158.51
  Q 883.12 1158.01 882.82 1157.41
  Q 879.09 1149.90 876.85 1146.16
  Q 874.00 1141.38 869.86 1128.62
  Q 867.21 1120.44 864.10 1107.60
  Q 861.37 1096.30 860.18 1086.18
  Q 857.09 1059.70 859.58 1035.75
  Q 860.54 1026.49 864.03 1008.30
  Q 864.70 1004.85 865.50 1002.26
  Q 866.45 999.22 867.07 996.25
  A 4.51 4.30 -28.3 0 1 867.38 995.30
  Q 869.02 991.69 869.14 991.00
  Q 869.63 988.28 870.03 987.51
  Q 871.89 985.67 871.81 982.79
  Q 871.79 982.10 871.46 981.95
  A 0.56 0.37 26.0 0 1 871.11 981.36
  Q 871.49 980.68 871.87 980.55
  C 872.74 980.24 873.11 979.00 873.55 978.62
  A 1.35 0.11 -23.9 0 1 874.39 978.16
  Q 874.79 977.97 875.18 977.00
  Q 876.56 973.58 876.74 972.99
  A 0.04 0.04 0.0 0 0 876.66 972.96
  L 875.18 975.50
  A 0.33 0.31 -72.7 0 1 874.89 975.66
  L 874.88 975.66
  A 0.23 0.22 -66.5 0 1 874.77 975.37
  L 878.26 966.47
  Q 882.82 958.91 886.88 951.04
  Q 886.94 950.93 888.64 947.98
  Q 890.30 945.09 890.66 942.01
  Q 891.73 941.70 892.65 940.07
  A 2.14 2.06 -2.8 0 1 893.29 939.39
  Q 895.41 938.01 896.73 935.39
  A 2.82 2.65 81.9 0 1 897.21 934.71
  Q 907.68 923.94 912.43 919.19
  Q 914.43 917.19 920.56 913.13
  A 1.92 1.74 -81.5 0 0 920.84 912.90
  L 922.20 911.50
  A 1.98 1.96 -78.0 0 1 922.87 911.06
  Q 924.75 910.32 925.62 909.24
  Q 926.13 908.62 926.59 908.42
  Q 929.67 907.13 931.33 905.56
  A 2.43 2.38 13.3 0 1 932.21 905.03
  Q 934.05 904.37 934.49 904.08
  Q 935.60 903.36 937.08 902.64
  Q 951.23 895.76 969.26 894.93
  Q 1010.16 893.05 1036.86 920.52
  Q 1043.99 927.86 1047.99 935.73
  C 1054.49 948.56 1058.70 962.58 1059.39 977.83
  Q 1059.80 986.91 1059.33 996.00
  Q 1059.29 996.65 1057.94 1009.18
  Q 1057.35 1014.66 1056.03 1022.27
  Q 1052.94 1040.01 1052.98 1058.50
  C 1053.00 1068.23 1053.55 1078.12 1056.34 1086.69
  Q 1057.93 1091.54 1058.52 1092.71
  Q 1061.10 1097.80 1064.14 1104.07
  Q 1065.02 1106.46 1067.94 1108.84
  A 0.70 0.70 0.0 0 1 1068.17 1109.59
  Q 1068.04 1110.00 1068.42 1110.14
  A 0.04 0.03 11.7 0 0 1068.47 1110.11
  Q 1068.46 1109.99 1068.42 1109.85
  A 0.04 0.04 0.0 0 1 1068.49 1109.81
  Q 1076.40 1118.51 1077.19 1119.28
  Q 1082.71 1124.70 1088.46 1127.29
  Q 1094.16 1129.85 1101.55 1131.91
  Q 1112.91 1135.09 1123.11 1133.80
  Q 1139.58 1131.72 1160.52 1127.27
  Q 1160.99 1127.17 1162.24 1127.09
  Q 1163.13 1127.03 1163.98 1126.80
  L 1159.98 1129.76
  Q 1159.95 1129.79 1159.92 1129.82
  Q 1151.87 1137.49 1145.60 1141.10
  C 1135.51 1146.94 1122.80 1151.80 1111.40 1153.49
  Q 1094.47 1156.01 1076.68 1151.52
  Q 1060.66 1147.47 1047.61 1137.06
  C 1033.81 1126.05 1022.77 1111.71 1017.49 1095.08
  A 2.81 2.76 37.8 0 1 1017.36 1094.12
  Q 1017.40 1093.21 1017.12 1092.05
  A 0.30 0.29 -10.0 0 0 1016.80 1091.83
  Q 1016.70 1091.84 1016.69 1091.84
  A 0.63 0.63 0.0 0 1 1016.20 1091.33
  Q 1016.08 1090.63 1015.71 1090.31
  Q 1010.20 1067.77 1011.09 1049.01
  Q 1011.55 1039.09 1015.06 1016.20
  C 1017.40 1000.97 1019.61 985.38 1016.76 969.75
  Q 1013.54 952.05 997.81 942.73
  C 988.89 937.43 978.93 935.93 968.49 936.69
  Q 958.46 937.42 949.78 943.04
  Q 934.41 952.97 924.81 968.78
  Q 915.75 983.69 909.45 1000.89
  Q 903.73 1016.49 901.68 1035.57
  Q 898.64 1063.78 903.04 1090.91
  Q 904.43 1099.52 907.07 1107.35
  Q 908.83 1115.05 912.55 1123.99
  C 922.94 1148.97 937.59 1170.11 958.04 1187.10
  Q 968.13 1195.49 982.02 1202.93
  Q 996.16 1210.51 1008.20 1214.74
  Q 1058.25 1232.36 1111.25 1224.49
  C 1144.48 1219.56 1175.57 1205.02 1200.99 1183.27
  C 1223.72 1163.82 1239.51 1137.28 1248.19 1108.98
  Q 1252.58 1094.66 1253.70 1079.77
  C 1255.42 1056.92 1253.46 1035.20 1246.06 1014.41
  Q 1241.11 1000.50 1234.99 988.24
  Q 1233.55 985.34 1231.70 983.31
  A 0.65 0.64 -52.1 0 0 1230.66 983.44
  Q 1222.85 997.92 1210.88 1017.14
  Q 1208.93 1020.26 1200.78 1032.83
  A 3.34 3.22 -2.3 0 1 1199.92 1033.73
  Q 1197.92 1035.19 1197.91 1036.77
  Q 1197.85 1045.99 1197.92 1055.21
  L 1197.87 953.83
  Q 1199.47 951.79 1200.10 949.37
  A 0.03 0.02 -31.7 0 1 1200.11 949.35
  L 1200.42 949.15
  A 1.01 0.98 -5.6 0 0 1200.74 948.77
  Q 1209.03 929.81 1211.71 922.47
  Q 1220.23 899.17 1225.10 873.37
  C 1228.59 854.83 1229.44 833.73 1229.21 813.28
  Q 1229.07 800.72 1228.03 792.36
  A 0.70 0.70 0.0 0 1 1229.03 791.65
  Q 1231.98 793.09 1248.11 801.90
  Q 1268.50 813.03 1285.77 827.44
  A 0.94 0.94 0.0 0 0 1287.27 826.98
  Q 1287.96 824.64 1288.01 821.00
  C 1288.39 797.31 1286.97 776.09 1282.73 753.51
  Q 1279.63 736.96 1276.78 726.35
  Q 1273.04 712.40 1266.17 693.81
  Q 1257.66 670.78 1248.20 653.13
  C 1246.50 649.94 1245.31 646.62 1243.76 643.41
  A 0.72 0.71 -10.4 0 1 1244.47 642.39
  Q 1253.70 643.24 1263.01 643.91
  Q 1268.73 644.32 1289.80 649.70
  L 1322.21 660.60
  A 0.71 0.70 -85.5 0 0 1323.13 659.81
  Q 1321.42 649.81 1317.70 638.79
  C 1311.41 620.13 1303.51 601.70 1294.07 584.68
  Q 1286.69 571.37 1276.37 557.82
  C 1275.57 556.77 1275.42 555.57 1274.55 554.96
  Q 1274.16 554.68 1273.18 553.35
  Q 1267.35 545.48 1260.69 538.34
  C 1258.29 535.77 1256.06 533.01 1254.01 530.97
  Q 1232.99 510.07 1226.07 503.92
  Q 1218.73 497.39 1212.24 491.08
  A 0.56 0.56 0.0 0 1 1212.51 490.13
  Q 1233.89 485.17 1254.06 476.81
  Q 1262.29 473.39 1271.17 467.44
  Q 1272.76 466.37 1275.72 463.63
  L 1288.39 452.91
  A 0.44 0.43 32.4 0 0 1288.22 452.16
  Q 1268.72 446.64 1250.07 436.92
  Q 1244.67 434.11 1237.33 429.23
  Q 1228.02 423.04 1224.95 420.81
  Q 1197.21 400.63 1176.81 373.20
  Q 1158.28 348.28 1141.92 328.88
  C 1122.70 306.08 1100.35 287.13 1075.39 272.29
  A 0.44 0.44 0.0 0 0 1074.73 272.74
  Q 1077.62 291.32 1078.25 310.49
  Q 1078.28 311.54 1079.01 314.03
  Q 1078.55 315.12 1078.61 316.25
  Q 1080.55 356.93 1076.93 397.50
  Q 1075.38 414.99 1072.41 426.29
  Q 1055.45 430.88 1038.48 435.39
  Q 1037.83 435.56 1037.39 435.83
  A 1.89 1.80 -61.6 0 1 1036.53 436.11
  Q 1033.31 436.29 1029.63 437.67
  A 2.41 2.20 -54.0 0 1 1029.00 437.80
  Q 1027.24 437.93 1022.41 439.66
  Q 1021.51 439.99 1017.94 440.58
  A 0.20 0.18 -81.7 0 0 1017.82 440.68
  Q 1017.76 440.83 1017.72 440.91
  A 0.72 0.39 -1.7 0 1 1017.32 441.14
  L 985.97 448.83
  Q 982.89 446.86 982.08 446.18
  Q 970.79 436.74 967.35 434.16
  Q 964.53 432.04 951.62 423.47
  Q 943.54 418.10 935.25 413.81
  Q 914.69 403.15 901.54 398.20
  Q 882.75 391.11 864.06 385.12
  A 1.10 1.09 22.7 0 1 863.42 383.58
  C 869.74 371.38 878.80 357.10 883.64 348.71
  Q 888.09 341.00 895.68 329.00
  Q 904.26 315.45 913.66 299.85
  C 919.20 290.65 925.21 281.79 930.01 274.26
  Q 931.66 271.66 948.32 244.42
  C 959.72 225.77 970.24 210.07 982.89 190.29
  A 0.13 0.13 0.0 0 0 982.70 190.12
  C 978.92 193.32 976.66 195.92 973.07 198.19
  Q 971.03 199.49 960.39 208.39
  Q 921.62 240.82 892.17 273.40
  Q 868.92 299.12 843.94 333.95
  Q 839.34 340.36 825.60 361.07
  C 823.34 364.49 821.51 368.65 819.50 371.13
  Q 818.23 372.70 816.05 372.21
  C 790.67 366.49 765.48 361.92 738.53 359.79
  Q 713.28 357.79 696.92 357.26
  Q 671.13 356.43 641.26 359.03
  Q 593.93 363.14 556.76 372.05
  Q 553.87 372.74 552.40 370.37
  Q 540.49 351.19 525.82 330.42
  Q 511.27 309.81 487.12 281.63
  C 463.89 254.51 438.66 231.11 411.69 208.57
  C 404.84 202.84 397.88 197.56 391.50 191.76
  A 0.36 0.35 16.2 0 0 390.91 192.08
  Q 391.03 192.72 391.32 193.16
  C 396.85 201.58 402.29 211.16 408.16 220.07
  C 412.26 226.29 415.63 231.10 420.54 238.98
  Q 432.83 258.74 442.44 273.95
  Q 450.48 286.65 456.01 295.99
  C 467.07 314.64 478.49 332.18 488.30 348.57
  Q 504.75 376.04 506.72 379.29
  Q 507.90 381.24 509.09 383.75
  A 0.72 0.71 -21.5 0 1 508.66 384.73
  Q 495.12 389.00 480.32 394.36
  C 457.80 402.52 437.97 412.75 417.73 425.24
  Q 404.06 433.67 386.99 448.79
  Q 383.92 448.38 379.68 447.31
  Q 361.81 442.78 344.91 438.21
  C 333.57 435.15 318.83 431.65 306.85 428.26
  Q 302.98 427.16 299.42 426.62
  Q 298.04 418.92 297.67 415.75
  Q 296.56 406.34 294.97 387.18
  Q 291.97 351.04 293.39 314.26
  Q 293.22 313.15 293.44 311.55
  Q 293.72 309.58 293.74 308.87
  Q 294.47 290.73 297.36 272.74
  A 0.59 0.59 0.0 0 0 296.46 272.15
  C 280.87 281.90 265.95 292.20 252.77 305.26
  Q 240.38 317.53 236.19 322.20
  C 219.48 340.84 206.12 358.69 188.46 381.96
  Q 183.93 387.92 176.37 395.61
  Q 153.31 419.08 124.95 435.32
  Q 119.11 438.66 111.90 441.74
  C 100.23 446.72 94.32 449.53 84.66 451.63
  A 0.70 0.70 0.0 0 0 84.31 452.80
  Q 90.69 459.39 98.48 464.58
  Q 101.95 468.04 105.98 470.28
  C 122.95 479.69 140.73 485.47 159.77 489.97
  Q 160.08 490.04 160.22 490.27
  Q 160.60 490.92 160.07 491.37
  C 141.02 508.00 121.40 526.68 104.70 546.69
  Q 77.97 578.70 62.21 617.47
  Q 53.95 637.79 49.61 659.87
  A 0.66 0.66 0.0 0 0 50.47 660.62
  L 82.33 649.63
  Q 86.44 648.73 90.00 647.83
  Q 109.04 643.07 128.04 642.48
  A 0.52 0.52 0.0 0 1 128.53 643.22
  Q 121.28 658.17 116.72 666.73
  Q 114.82 670.30 108.05 687.85
  Q 93.97 724.29 88.17 759.72
  Q 82.73 792.93 84.79 826.92
  A 0.56 0.56 0.0 0 0 85.67 827.35
  Q 95.05 820.80 99.70 817.41
  C 112.51 808.07 127.35 800.17 139.95 793.70
  Q 142.14 792.58 143.33 792.22
  A 0.62 0.62 0.0 0 1 144.13 792.87
  Q 141.27 824.96 144.67 856.77
  C 146.41 873.12 150.48 889.31 155.22 905.85
  Q 161.58 928.01 172.18 950.03
  Q 172.87 951.46 174.09 952.06
  L 173.81 1036.11
  Q 173.17 1035.39 172.78 1034.65
  Q 172.11 1033.36 171.94 1033.11
  Q 163.98 1021.71 160.57 1016.23
  Q 138.79 981.25 124.34 943.96
  Q 117.47 926.21 113.31 909.19
  Q 109.63 894.16 106.50 877.74
  C 105.98 875.00 106.07 872.36 105.66 869.90
  A 1.77 1.71 -77.2 0 0 104.99 868.80
  Q 104.59 868.50 104.69 867.87
  A 0.44 0.43 82.0 0 0 104.08 867.40
  Q 102.17 868.27 100.67 870.07
  Q 99.71 871.22 99.17 871.80
  Q 75.42 897.41 62.12 912.62
  Q 61.14 913.74 59.07 915.40
  A 0.48 0.48 0.0 0 1 58.32 915.17
  Q 56.53 909.88 55.39 905.29
  Q 45.44 865.25 43.15 825.26
  Q 42.91 821.20 43.05 797.94
  Q 43.08 792.85 43.71 788.35
  C 44.28 784.30 43.89 780.44 44.46 775.58
  Q 48.42 741.80 57.87 706.38
  Q 58.20 705.13 57.98 704.07
  A 0.87 0.87 0.0 0 0 56.73 703.48
  C 48.33 707.86 43.20 710.30 35.62 714.81
  C 21.69 723.09 13.49 728.25 2.08 734.02
  A 0.64 0.64 0.0 0 1 1.15 733.45
  Q 1.03 722.18 1.16 710.18
  C 1.21 705.60 2.15 702.01 1.99 697.97
  Q 1.93 696.49 2.31 693.08
  Q 3.87 679.14 5.70 667.76
  C 10.06 640.64 17.56 614.31 28.94 589.97
  Q 30.16 587.38 35.03 577.03
  C 47.02 551.54 64.95 528.41 84.24 507.20
  A 1.36 1.35 -52.8 0 0 83.96 505.14
  Q 76.30 500.29 68.82 494.49
  Q 58.16 486.22 46.97 473.29
  Q 38.11 463.05 31.43 450.56
  Q 19.35 427.93 17.10 423.34
  A 0.71 0.70 67.4 0 1 17.50 422.36
  Q 19.74 421.57 20.81 421.36
  Q 22.37 421.05 39.63 418.84
  Q 52.55 417.19 58.37 415.98
  Q 113.31 404.53 150.77 362.26
  Q 158.64 353.38 164.08 346.09
  Q 179.61 325.31 189.40 313.15
  Q 213.10 283.71 240.88 260.40
  Q 246.82 255.42 257.37 248.36
  Q 278.86 234.00 303.03 223.06
  A 3.14 3.14 0.0 0 0 304.79 220.91
  C 307.45 209.30 308.99 198.44 311.84 187.26
  Q 316.81 167.75 317.45 165.47
  Q 321.19 152.13 331.39 121.17
  Q 332.90 116.60 335.31 112.29
  A 0.92 0.91 25.4 0 1 336.44 111.89
  Q 341.14 113.79 345.78 116.23
  Q 362.57 125.09 370.82 130.20
  Q 375.88 133.35 397.42 147.33
  Q 422.94 163.90 445.85 183.41
  Q 447.54 184.86 449.26 182.76
  C 489.92 132.89 549.76 101.05 613.09 91.52
  C 616.35 91.03 620.26 90.98 623.83 90.15
  A 4.98 4.62 35.9 0 1 624.81 90.03
  Q 628.36 89.97 634.00 89.92
  Q 634.25 89.91 636.00 89.74
  Q 648.28 88.57 656.68 89.16
  Q 668.04 89.96 675.61 90.07
  A 0.43 0.43 0.0 0 1 676.00 90.67
  L 657.04 135.46
  A 0.65 0.65 0.0 0 0 657.75 136.35
  Q 659.56 136.03 660.34 135.58
  Q 695.56 115.42 727.59 104.66
  Q 750.14 97.08 780.69 92.55
  C 785.04 91.90 789.81 92.09 794.42 91.07
  A 2.91 2.46 33.8 0 1 795.04 91.00
  L 823.05 91.00
  A 1.08 0.94 49.1 0 1 823.33 91.04
  Q 827.96 92.14 833.74 92.03
  A 6.39 6.18 50.7 0 1 835.46 92.23
  C 839.14 93.18 843.30 92.96 847.65 93.60
  Q 868.97 96.74 879.20 98.61
  Q 881.62 99.05 884.68 99.81
  A 0.47 0.47 0.0 0 1 884.91 100.60
  Q 867.00 119.22 849.93 139.86
  A 0.67 0.67 0.0 0 0 850.45 140.96
  Q 853.98 140.91 858.01 140.08
  A 4.76 4.75 -50.8 0 1 858.98 139.98
  Q 874.98 140.03 879.32 139.98
  Q 883.24 139.93 886.66 140.48
  Q 888.15 140.72 893.99 141.14
  Q 901.30 141.66 913.52 143.47
  Q 921.73 144.68 928.54 146.37
  Q 937.01 148.47 943.43 149.95
  C 949.77 151.40 954.95 153.29 960.51 155.23
  A 3.60 3.57 37.9 0 0 963.65 154.85
  C 974.99 147.40 988.31 137.88 1001.21 130.40
  Q 1018.71 120.23 1033.81 112.54
  Q 1035.41 111.72 1036.65 112.32
  A 1.47 1.46 0.8 0 1 1037.35 113.03
  Q 1039.49 117.63 1039.85 118.73
  Q 1049.77 148.70 1053.86 163.08
  Q 1061.81 191.02 1066.50 217.70
  Q 1067.32 222.32 1071.08 223.98
  Q 1093.99 234.11 1114.37 247.75
  Q 1132.71 260.03 1152.42 279.59
  Q 1172.14 299.16 1182.39 312.62
  Q 1184.92 315.94 1213.08 352.99
  Q 1221.59 364.19 1236.14 377.16
  Q 1268.76 406.26 1312.57 415.87
  Q 1319.26 417.33 1329.99 418.71
  C 1338.65 419.82 1345.99 420.50 1353.33 422.05
  A 1.28 1.28 0.0 0 1 1354.27 423.73
  Q 1352.95 427.42 1350.76 431.77
  Q 1347.81 437.64 1340.95 450.46
  Q 1332.93 465.44 1321.54 477.79
  Q 1306.96 493.62 1288.65 504.97
  A 1.27 1.26 54.4 0 0 1288.34 506.85
  Q 1289.43 508.16 1290.68 509.64
  Q 1308.83 531.22 1318.42 545.57
  C 1333.32 567.88 1345.64 593.41 1354.70 619.00
  Q 1359.30 631.96 1363.36 650.78
  Q 1367.92 671.88 1370.19 696.85
  Q 1371.04 706.07 1371.03 713.73
  Q 1371.01 725.31 1371.36 730.76
  A 1.16 0.80 -53.1 0 1 1371.35 731.01
  L 1370.95 733.48
  A 0.67 0.67 0.0 0 1 1369.95 733.96
  L 1315.23 702.90
  A 1.24 1.23 24.5 0 0 1313.46 703.56
  Q 1313.43 703.63 1313.63 704.37
  C 1318.06 721.27 1322.29 738.92 1325.08 756.51
  C 1328.72 779.49 1329.59 802.25 1328.79 825.01
  Q 1328.24 840.93 1325.50 860.00
  Q 1321.68 886.60 1315.16 911.45
  Q 1314.57 913.71 1313.73 915.44
  A 0.43 0.43 0.0 0 1 1313.03 915.55
  L 1269.12 868.28
  Z
  M 498.91 232.47
  Q 522.87 258.94 528.72 266.02
  Q 538.92 278.37 562.86 312.03
  Q 568.08 319.38 571.66 325.11
  A 2.05 2.05 0.0 0 0 573.78 326.04
  C 621.07 317.21 669.87 314.36 717.26 316.63
  Q 760.77 318.71 798.22 326.31
  A 1.46 1.44 -54.1 0 0 799.24 326.14
  Q 800.59 325.34 801.55 323.77
  C 811.93 306.78 822.76 293.00 836.70 275.15
  Q 844.28 265.45 852.55 256.07
  Q 870.83 235.34 890.91 216.34
  Q 895.85 211.62 900.72 206.82
  Q 906.19 201.41 910.43 197.86
  C 916.02 193.17 919.87 190.26 921.53 188.17
  A 0.74 0.74 0.0 0 0 921.13 186.99
  C 901.39 182.12 880.20 181.08 860.82 181.52
  Q 845.37 181.87 829.89 184.88
  Q 807.76 189.18 792.02 194.05
  Q 783.62 196.64 771.75 199.71
  A 0.54 0.54 0.0 0 1 771.09 199.07
  Q 774.43 182.89 781.42 168.14
  Q 782.80 165.23 786.48 158.11
  C 790.60 150.13 796.09 142.99 800.83 136.05
  Q 801.41 135.20 802.00 134.09
  A 0.74 0.74 0.0 0 0 801.35 133.01
  Q 790.08 132.96 777.69 134.95
  Q 725.00 143.39 678.34 173.10
  Q 661.81 183.62 651.25 191.01
  Q 640.49 198.54 636.05 202.31
  Q 619.55 216.32 616.67 218.67
  Q 614.74 220.25 613.08 220.98
  A 0.50 0.50 0.0 0 1 612.39 220.65
  Q 610.92 214.77 610.13 208.94
  C 607.27 188.08 605.98 166.77 611.23 146.49
  Q 613.15 139.09 614.49 134.70
  A 0.50 0.50 0.0 0 0 614.01 134.05
  Q 611.00 134.05 607.93 134.63
  Q 545.10 146.60 499.42 190.15
  Q 488.24 200.82 479.10 211.41
  A 1.04 1.04 0.0 0 0 479.15 212.83
  L 498.91 232.47
  Z
  M 350.37 207.19
  Q 350.25 207.27 350.17 207.68
  Q 343.99 236.83 341.10 255.02
  Q 339.10 267.57 336.01 297.10
  C 334.99 306.83 334.92 316.65 334.40 329.25
  Q 332.23 381.98 342.46 432.45
  A 0.22 0.22 0.0 0 0 342.83 432.57
  C 362.53 414.79 384.76 396.52 407.35 383.25
  Q 425.60 372.54 447.29 363.28
  A 0.66 0.65 64.3 0 0 447.61 362.36
  Q 443.70 355.34 440.49 350.04
  Q 427.51 328.59 415.13 308.41
  C 409.63 299.44 402.56 287.07 396.21 276.90
  Q 374.38 241.97 351.12 207.33
  Q 350.82 206.88 350.37 207.19
  Z
  M 1020.88 207.89
  Q 1020.50 208.18 1020.17 208.69
  C 1003.69 233.85 995.83 245.52 983.13 266.15
  Q 943.88 329.92 926.87 358.11
  Q 925.98 359.59 924.74 362.09
  A 0.49 0.49 0.0 0 0 924.96 362.75
  Q 932.87 366.74 941.84 370.94
  C 958.50 378.75 975.52 388.78 990.48 400.50
  C 1000.45 408.32 1014.82 419.10 1024.43 428.08
  Q 1027.25 430.71 1028.96 432.60
  A 0.42 0.42 0.0 0 0 1029.69 432.38
  C 1030.49 427.05 1031.92 421.65 1032.76 416.21
  Q 1040.50 365.51 1037.11 313.75
  Q 1035.14 283.62 1032.05 260.78
  C 1029.72 243.53 1024.61 221.63 1021.59 208.15
  A 0.45 0.45 0.0 0 0 1020.88 207.89
  Z"
/>
<path fill="#faf0c3" d="
  M 890.91 216.34
  Q 887.90 215.44 886.77 215.37
  Q 884.85 215.26 867.50 214.07
  Q 860.37 213.58 842.99 214.17
  C 836.59 214.38 829.51 215.77 824.09 216.26
  Q 818.26 216.79 810.03 218.57
  Q 792.71 222.32 783.04 225.19
  Q 781.53 225.64 769.85 229.17
  C 758.78 232.52 744.28 239.13 736.93 241.67
  Q 734.86 242.39 733.55 242.49
  A 0.53 0.53 0.0 0 1 732.99 241.83
  C 734.25 236.91 734.22 231.04 735.07 225.04
  Q 738.41 201.38 744.20 181.46
  Q 744.84 179.26 745.78 177.38
  A 0.68 0.68 0.0 0 0 744.99 176.42
  Q 730.99 180.24 718.67 184.99
  Q 709.48 188.53 695.47 195.33
  Q 685.60 200.11 673.45 207.94
  C 662.89 214.74 653.27 220.55 644.36 227.67
  Q 622.40 245.22 603.09 267.64
  A 0.61 0.61 0.0 0 1 602.13 267.60
  Q 598.30 262.31 595.70 256.29
  Q 591.44 246.48 588.74 239.72
  Q 577.90 212.57 578.13 183.75
  Q 578.16 180.50 578.95 177.31
  A 0.53 0.52 -3.0 0 0 578.26 176.69
  Q 557.31 184.34 539.16 196.40
  Q 526.77 204.63 521.02 210.32
  C 511.22 220.02 506.00 224.97 502.20 229.20
  Q 500.68 230.89 498.91 232.47
  L 479.15 212.83
  A 1.04 1.04 0.0 0 1 479.10 211.41
  Q 488.24 200.82 499.42 190.15
  Q 545.10 146.60 607.93 134.63
  Q 611.00 134.05 614.01 134.05
  A 0.50 0.50 0.0 0 1 614.49 134.70
  Q 613.15 139.09 611.23 146.49
  C 605.98 166.77 607.27 188.08 610.13 208.94
  Q 610.92 214.77 612.39 220.65
  A 0.50 0.50 0.0 0 0 613.08 220.98
  Q 614.74 220.25 616.67 218.67
  Q 619.55 216.32 636.05 202.31
  Q 640.49 198.54 651.25 191.01
  Q 661.81 183.62 678.34 173.10
  Q 725.00 143.39 777.69 134.95
  Q 790.08 132.96 801.35 133.01
  A 0.74 0.74 0.0 0 1 802.00 134.09
  Q 801.41 135.20 800.83 136.05
  C 796.09 142.99 790.60 150.13 786.48 158.11
  Q 782.80 165.23 781.42 168.14
  Q 774.43 182.89 771.09 199.07
  A 0.54 0.54 0.0 0 0 771.75 199.71
  Q 783.62 196.64 792.02 194.05
  Q 807.76 189.18 829.89 184.88
  Q 845.37 181.87 860.82 181.52
  C 880.20 181.08 901.39 182.12 921.13 186.99
  A 0.74 0.74 0.0 0 1 921.53 188.17
  C 919.87 190.26 916.02 193.17 910.43 197.86
  Q 906.19 201.41 900.72 206.82
  Q 895.85 211.62 890.91 216.34
  Z"
/>
<path fill="#f9ba1a" d="
  M 890.91 216.34
  Q 870.83 235.34 852.55 256.07
  Q 844.28 265.45 836.70 275.15
  C 822.76 293.00 811.93 306.78 801.55 323.77
  Q 800.59 325.34 799.24 326.14
  A 1.46 1.44 -54.1 0 1 798.22 326.31
  Q 760.77 318.71 717.26 316.63
  C 669.87 314.36 621.07 317.21 573.78 326.04
  A 2.05 2.05 0.0 0 1 571.66 325.11
  Q 568.08 319.38 562.86 312.03
  Q 538.92 278.37 528.72 266.02
  Q 522.87 258.94 498.91 232.47
  Q 500.68 230.89 502.20 229.20
  C 506.00 224.97 511.22 220.02 521.02 210.32
  Q 526.77 204.63 539.16 196.40
  Q 557.31 184.34 578.26 176.69
  A 0.53 0.52 -3.0 0 1 578.95 177.31
  Q 578.16 180.50 578.13 183.75
  Q 577.90 212.57 588.74 239.72
  Q 591.44 246.48 595.70 256.29
  Q 598.30 262.31 602.13 267.60
  A 0.61 0.61 0.0 0 0 603.09 267.64
  Q 622.40 245.22 644.36 227.67
  C 653.27 220.55 662.89 214.74 673.45 207.94
  Q 685.60 200.11 695.47 195.33
  Q 709.48 188.53 718.67 184.99
  Q 730.99 180.24 744.99 176.42
  A 0.68 0.68 0.0 0 1 745.78 177.38
  Q 744.84 179.26 744.20 181.46
  Q 738.41 201.38 735.07 225.04
  C 734.22 231.04 734.25 236.91 732.99 241.83
  A 0.53 0.53 0.0 0 0 733.55 242.49
  Q 734.86 242.39 736.93 241.67
  C 744.28 239.13 758.78 232.52 769.85 229.17
  Q 781.53 225.64 783.04 225.19
  Q 792.71 222.32 810.03 218.57
  Q 818.26 216.79 824.09 216.26
  C 829.51 215.77 836.59 214.38 842.99 214.17
  Q 860.37 213.58 867.50 214.07
  Q 884.85 215.26 886.77 215.37
  Q 887.90 215.44 890.91 216.34
  Z"
/>
<path fill="#f9ba1a" d="
  M 985.97 448.83
  Q 934.11 463.04 900.71 472.98
  Q 853.04 487.17 805.90 511.10
  C 793.33 517.48 782.02 524.56 771.29 531.55
  C 736.56 554.17 706.33 585.20 685.95 622.13
  A 0.28 0.28 0.0 0 1 685.45 622.11
  Q 683.43 617.69 681.40 614.38
  Q 672.25 599.50 661.22 585.32
  Q 651.28 572.53 636.97 559.59
  Q 621.58 545.69 608.22 536.56
  Q 588.60 523.15 575.98 516.32
  Q 556.59 505.81 544.65 500.39
  Q 501.79 480.93 455.68 468.09
  Q 421.90 458.67 386.99 448.79
  Q 404.06 433.67 417.73 425.24
  C 437.97 412.75 457.80 402.52 480.32 394.36
  Q 495.12 389.00 508.66 384.73
  A 0.72 0.71 -21.5 0 0 509.09 383.75
  Q 507.90 381.24 506.72 379.29
  Q 504.75 376.04 488.30 348.57
  C 478.49 332.18 467.07 314.64 456.01 295.99
  Q 450.48 286.65 442.44 273.95
  Q 432.83 258.74 420.54 238.98
  C 415.63 231.10 412.26 226.29 408.16 220.07
  C 402.29 211.16 396.85 201.58 391.32 193.16
  Q 391.03 192.72 390.91 192.08
  A 0.36 0.35 16.2 0 1 391.50 191.76
  C 397.88 197.56 404.84 202.84 411.69 208.57
  C 438.66 231.11 463.89 254.51 487.12 281.63
  Q 511.27 309.81 525.82 330.42
  Q 540.49 351.19 552.40 370.37
  Q 553.87 372.74 556.76 372.05
  Q 593.93 363.14 641.26 359.03
  Q 671.13 356.43 696.92 357.26
  Q 713.28 357.79 738.53 359.79
  C 765.48 361.92 790.67 366.49 816.05 372.21
  Q 818.23 372.70 819.50 371.13
  C 821.51 368.65 823.34 364.49 825.60 361.07
  Q 839.34 340.36 843.94 333.95
  Q 868.92 299.12 892.17 273.40
  Q 921.62 240.82 960.39 208.39
  Q 971.03 199.49 973.07 198.19
  C 976.66 195.92 978.92 193.32 982.70 190.12
  A 0.13 0.13 0.0 0 1 982.89 190.29
  C 970.24 210.07 959.72 225.77 948.32 244.42
  Q 931.66 271.66 930.01 274.26
  C 925.21 281.79 919.20 290.65 913.66 299.85
  Q 904.26 315.45 895.68 329.00
  Q 888.09 341.00 883.64 348.71
  C 878.80 357.10 869.74 371.38 863.42 383.58
  A 1.10 1.09 22.7 0 0 864.06 385.12
  Q 882.75 391.11 901.54 398.20
  Q 914.69 403.15 935.25 413.81
  Q 943.54 418.10 951.62 423.47
  Q 964.53 432.04 967.35 434.16
  Q 970.79 436.74 982.08 446.18
  Q 982.89 446.86 985.97 448.83
  Z"
/>
<path fill="#faf0c3" d="
  M 350.37 207.19
  Q 350.82 206.88 351.12 207.33
  Q 374.38 241.97 396.21 276.90
  C 402.56 287.07 409.63 299.44 415.13 308.41
  Q 427.51 328.59 440.49 350.04
  Q 443.70 355.34 447.61 362.36
  A 0.66 0.65 64.3 0 1 447.29 363.28
  Q 425.60 372.54 407.35 383.25
  C 384.76 396.52 362.53 414.79 342.83 432.57
  A 0.22 0.22 0.0 0 1 342.46 432.45
  Q 332.23 381.98 334.40 329.25
  C 334.92 316.65 334.99 306.83 336.01 297.10
  Q 339.10 267.57 341.10 255.02
  Q 343.99 236.83 350.17 207.68
  Q 350.25 207.27 350.37 207.19
  Z"
/>
<path fill="#faf0c3" d="
  M 1020.88 207.89
  A 0.45 0.45 0.0 0 1 1021.59 208.15
  C 1024.61 221.63 1029.72 243.53 1032.05 260.78
  Q 1035.14 283.62 1037.11 313.75
  Q 1040.50 365.51 1032.76 416.21
  C 1031.92 421.65 1030.49 427.05 1029.69 432.38
  A 0.42 0.42 0.0 0 1 1028.96 432.60
  Q 1027.25 430.71 1024.43 428.08
  C 1014.82 419.10 1000.45 408.32 990.48 400.50
  C 975.52 388.78 958.50 378.75 941.84 370.94
  Q 932.87 366.74 924.96 362.75
  A 0.49 0.49 0.0 0 1 924.74 362.09
  Q 925.98 359.59 926.87 358.11
  Q 943.88 329.92 983.13 266.15
  C 995.83 245.52 1003.69 233.85 1020.17 208.69
  Q 1020.50 208.18 1020.88 207.89
  Z"
/>
<path fill="#faf0c3" d="
  M 293.39 314.26
  Q 289.65 315.94 283.99 320.01
  Q 266.35 332.70 256.27 342.76
  Q 243.78 355.22 232.77 367.37
  C 223.61 377.50 214.85 389.05 207.34 398.34
  Q 197.81 410.12 184.84 423.59
  Q 178.88 429.78 166.32 439.39
  Q 160.97 443.48 152.30 447.97
  Q 142.27 453.16 137.57 455.32
  Q 134.24 456.85 132.03 457.54
  Q 130.77 457.94 126.41 459.56
  Q 117.32 462.93 107.16 464.06
  Q 106.26 464.17 102.82 464.22
  Q 100.64 464.26 98.48 464.58
  Q 90.69 459.39 84.31 452.80
  A 0.70 0.70 0.0 0 1 84.66 451.63
  C 94.32 449.53 100.23 446.72 111.90 441.74
  Q 119.11 438.66 124.95 435.32
  Q 153.31 419.08 176.37 395.61
  Q 183.93 387.92 188.46 381.96
  C 206.12 358.69 219.48 340.84 236.19 322.20
  Q 240.38 317.53 252.77 305.26
  C 265.95 292.20 280.87 281.90 296.46 272.15
  A 0.59 0.59 0.0 0 1 297.36 272.74
  Q 294.47 290.73 293.74 308.87
  Q 293.72 309.58 293.44 311.55
  Q 293.22 313.15 293.39 314.26
  Z"
/>
<path fill="#faf0c3" d="
  M 1275.72 463.63
  C 1266.65 464.60 1256.76 463.23 1248.18 460.54
  C 1234.61 456.27 1220.93 449.66 1209.49 441.92
  C 1196.45 433.09 1184.15 420.70 1173.56 409.01
  Q 1167.69 402.52 1150.11 380.65
  Q 1130.48 356.23 1105.08 332.93
  Q 1096.79 325.32 1087.04 318.46
  Q 1083.61 316.05 1079.01 314.03
  Q 1078.28 311.54 1078.25 310.49
  Q 1077.62 291.32 1074.73 272.74
  A 0.44 0.44 0.0 0 1 1075.39 272.29
  C 1100.35 287.13 1122.70 306.08 1141.92 328.88
  Q 1158.28 348.28 1176.81 373.20
  Q 1197.21 400.63 1224.95 420.81
  Q 1228.02 423.04 1237.33 429.23
  Q 1244.67 434.11 1250.07 436.92
  Q 1268.72 446.64 1288.22 452.16
  A 0.44 0.43 32.4 0 1 1288.39 452.91
  L 1275.72 463.63
  Z"
/>
<path fill="#f9ba1a" d="
  M 1275.72 463.63
  Q 1272.76 466.37 1271.17 467.44
  Q 1262.29 473.39 1254.06 476.81
  Q 1233.89 485.17 1212.51 490.13
  A 0.56 0.56 0.0 0 0 1212.24 491.08
  Q 1218.73 497.39 1226.07 503.92
  Q 1232.99 510.07 1254.01 530.97
  C 1256.06 533.01 1258.29 535.77 1260.69 538.34
  Q 1267.35 545.48 1273.18 553.35
  Q 1274.16 554.68 1274.55 554.96
  C 1275.42 555.57 1275.57 556.77 1276.37 557.82
  Q 1286.69 571.37 1294.07 584.68
  C 1303.51 601.70 1311.41 620.13 1317.70 638.79
  Q 1321.42 649.81 1323.13 659.81
  A 0.71 0.70 -85.5 0 1 1322.21 660.60
  L 1289.80 649.70
  Q 1287.49 646.60 1286.86 644.88
  C 1283.39 635.40 1277.07 628.13 1271.17 620.00
  Q 1266.97 614.21 1261.01 607.73
  Q 1250.73 596.53 1248.13 593.87
  Q 1226.98 572.25 1201.80 555.20
  Q 1200.69 554.44 1200.24 554.31
  A 2.31 2.29 5.0 0 1 1199.48 553.41
  L 1199.05 552.48
  A 0.18 0.17 37.8 0 0 1198.72 552.52
  Q 1198.68 552.73 1198.63 552.86
  Q 1198.48 550.80 1198.40 548.74
  Q 1198.09 540.15 1198.15 531.54
  L 1198.12 499.05
  A 1.23 1.22 -5.3 0 0 1196.67 497.85
  L 1151.90 505.98
  A 3.04 3.04 0.0 0 1 1149.17 505.10
  L 1072.41 426.29
  Q 1075.38 414.99 1076.93 397.50
  Q 1080.55 356.93 1078.61 316.25
  Q 1078.55 315.12 1079.01 314.03
  Q 1083.61 316.05 1087.04 318.46
  Q 1096.79 325.32 1105.08 332.93
  Q 1130.48 356.23 1150.11 380.65
  Q 1167.69 402.52 1173.56 409.01
  C 1184.15 420.70 1196.45 433.09 1209.49 441.92
  C 1220.93 449.66 1234.61 456.27 1248.18 460.54
  C 1256.76 463.23 1266.65 464.60 1275.72 463.63
  Z"
/>
<path fill="#f9ba1a" d="
  M 293.39 314.26
  Q 291.97 351.04 294.97 387.18
  Q 296.56 406.34 297.67 415.75
  Q 298.04 418.92 299.42 426.62
  L 221.52 506.22
  A 0.95 0.94 -62.0 0 1 220.66 506.49
  L 174.87 497.33
  A 0.79 0.78 -84.3 0 0 173.93 498.10
  L 174.13 554.96
  L 170.28 556.01
  A 2.96 2.84 19.6 0 0 169.48 556.37
  Q 162.72 560.66 155.53 566.29
  Q 142.27 576.66 132.26 585.74
  Q 123.77 593.42 107.07 612.08
  Q 104.69 614.73 91.61 632.59
  Q 85.26 641.27 82.33 649.63
  L 50.47 660.62
  A 0.66 0.66 0.0 0 1 49.61 659.87
  Q 53.95 637.79 62.21 617.47
  Q 77.97 578.70 104.70 546.69
  C 121.40 526.68 141.02 508.00 160.07 491.37
  Q 160.60 490.92 160.22 490.27
  Q 160.08 490.04 159.77 489.97
  C 140.73 485.47 122.95 479.69 105.98 470.28
  Q 101.95 468.04 98.48 464.58
  Q 100.64 464.26 102.82 464.22
  Q 106.26 464.17 107.16 464.06
  Q 117.32 462.93 126.41 459.56
  Q 130.77 457.94 132.03 457.54
  Q 134.24 456.85 137.57 455.32
  Q 142.27 453.16 152.30 447.97
  Q 160.97 443.48 166.32 439.39
  Q 178.88 429.78 184.84 423.59
  Q 197.81 410.12 207.34 398.34
  C 214.85 389.05 223.61 377.50 232.77 367.37
  Q 243.78 355.22 256.27 342.76
  Q 266.35 332.70 283.99 320.01
  Q 289.65 315.94 293.39 314.26
  Z"
/>
<path fill="#085987" d="
  M 1072.41 426.29
  L 1149.17 505.10
  A 3.04 3.04 0.0 0 0 1151.90 505.98
  L 1196.67 497.85
  A 1.23 1.22 -5.3 0 1 1198.12 499.05
  L 1198.15 531.54
  L 1197.87 953.83
  L 1197.92 1055.21
  L 1197.86 1119.40
  A 1.29 1.29 0.0 0 1 1196.81 1120.67
  L 1163.98 1126.80
  Q 1163.13 1127.03 1162.24 1127.09
  Q 1160.99 1127.17 1160.52 1127.27
  Q 1139.58 1131.72 1123.11 1133.80
  Q 1112.91 1135.09 1101.55 1131.91
  Q 1094.16 1129.85 1088.46 1127.29
  Q 1082.71 1124.70 1077.19 1119.28
  Q 1076.40 1118.51 1068.49 1109.81
  A 0.04 0.04 0.0 0 0 1068.42 1109.85
  Q 1068.46 1109.99 1068.47 1110.11
  A 0.04 0.03 11.7 0 1 1068.42 1110.14
  Q 1068.04 1110.00 1068.17 1109.59
  A 0.70 0.70 0.0 0 0 1067.94 1108.84
  Q 1065.02 1106.46 1064.14 1104.07
  Q 1068.24 1103.81 1072.47 1102.77
  Q 1078.84 1101.21 1080.67 1100.79
  C 1085.12 1099.78 1089.64 1098.34 1093.98 1097.48
  Q 1112.21 1093.86 1123.78 1091.40
  C 1134.29 1089.17 1145.82 1087.35 1155.90 1085.69
  A 1.13 1.12 85.2 0 0 1156.83 1084.58
  L 1156.80 574.43
  L 1156.58 548.74
  A 0.67 0.67 0.0 0 0 1156.00 548.09
  Q 1154.37 547.87 1152.04 548.33
  Q 1136.68 551.40 1120.44 555.44
  C 1090.36 562.93 1061.46 570.28 1032.68 579.76
  Q 1005.75 588.64 979.15 597.95
  Q 954.73 606.51 926.31 618.04
  Q 892.16 631.90 873.65 640.17
  Q 865.12 643.99 826.17 662.25
  C 811.19 669.28 798.23 676.29 784.73 682.79
  A 1.57 1.54 77.5 0 0 783.85 684.20
  L 784.07 713.03
  Q 783.68 717.52 783.68 722.00
  Q 783.85 961.25 784.03 1200.85
  A 0.54 0.53 -11.6 0 0 784.78 1201.34
  C 794.01 1197.42 802.48 1192.93 812.15 1188.85
  Q 818.71 1186.07 825.26 1183.42
  Q 830.61 1181.62 835.73 1179.26
  Q 843.61 1175.61 846.02 1174.70
  C 861.27 1168.93 870.40 1165.76 879.93 1160.81
  A 1.51 1.51 0.0 0 0 880.61 1160.07
  L 881.33 1158.36
  A 0.51 0.50 22.1 0 1 881.98 1158.09
  L 883.03 1158.51
  Q 883.39 1158.60 883.67 1159.10
  Q 890.84 1172.05 899.30 1184.19
  Q 901.07 1186.73 908.20 1195.06
  C 891.29 1201.91 871.94 1208.97 857.47 1214.94
  Q 820.17 1230.34 784.11 1248.35
  Q 776.55 1252.13 769.21 1257.41
  Q 759.05 1264.72 757.11 1265.79
  C 741.17 1274.59 724.44 1279.80 706.87 1282.09
  C 695.55 1283.57 681.25 1283.26 670.04 1282.50
  C 651.68 1281.24 631.76 1275.26 615.69 1266.00
  C 610.79 1263.17 606.52 1259.87 601.52 1256.19
  C 596.38 1252.42 589.15 1248.55 583.63 1245.86
  Q 546.07 1227.56 506.00 1211.51
  Q 476.65 1199.75 456.98 1192.54
  Q 420.87 1179.31 398.62 1172.66
  C 368.06 1163.52 339.95 1155.05 310.80 1148.00
  Q 280.14 1140.58 236.02 1131.56
  C 215.49 1127.35 192.59 1124.09 174.55 1120.77
  A 0.67 0.67 0.0 0 1 174.00 1120.11
  L 173.81 1036.11
  L 174.09 952.06
  L 174.13 554.96
  L 173.93 498.10
  A 0.79 0.78 -84.3 0 1 174.87 497.33
  L 220.66 506.49
  A 0.95 0.94 -62.0 0 0 221.52 506.22
  L 299.42 426.62
  Q 302.98 427.16 306.85 428.26
  C 318.83 431.65 333.57 435.15 344.91 438.21
  Q 361.81 442.78 379.68 447.31
  Q 383.92 448.38 386.99 448.79
  Q 421.90 458.67 455.68 468.09
  Q 501.79 480.93 544.65 500.39
  Q 556.59 505.81 575.98 516.32
  Q 588.60 523.15 608.22 536.56
  Q 621.58 545.69 636.97 559.59
  Q 651.28 572.53 661.22 585.32
  Q 672.25 599.50 681.40 614.38
  Q 683.43 617.69 685.45 622.11
  A 0.28 0.28 0.0 0 0 685.95 622.13
  C 706.33 585.20 736.56 554.17 771.29 531.55
  C 782.02 524.56 793.33 517.48 805.90 511.10
  Q 853.04 487.17 900.71 472.98
  Q 934.11 463.04 985.97 448.83
  L 1017.32 441.14
  A 0.72 0.39 -1.7 0 0 1017.72 440.91
  Q 1017.76 440.83 1017.82 440.68
  A 0.20 0.18 -81.7 0 1 1017.94 440.58
  Q 1021.51 439.99 1022.41 439.66
  Q 1027.24 437.93 1029.00 437.80
  A 2.41 2.20 -54.0 0 0 1029.63 437.67
  Q 1033.31 436.29 1036.53 436.11
  A 1.89 1.80 -61.6 0 0 1037.39 435.83
  Q 1037.83 435.56 1038.48 435.39
  Q 1055.45 430.88 1072.41 426.29
  Z
  M 662.65 670.13
  A 0.28 0.28 0.0 0 0 662.97 669.76
  Q 653.00 642.08 635.63 618.94
  Q 616.29 593.18 588.42 573.11
  Q 572.54 561.68 557.86 553.67
  Q 511.74 528.49 461.63 513.17
  Q 426.56 502.44 360.25 484.54
  Q 341.60 479.51 313.30 472.48
  A 0.84 0.82 28.8 0 0 312.50 472.70
  L 269.74 516.57
  A 0.65 0.65 0.0 0 0 270.05 517.66
  Q 306.16 526.45 342.21 537.34
  Q 375.79 547.50 428.18 566.71
  Q 452.18 575.51 480.80 587.77
  Q 516.22 602.93 532.70 610.58
  Q 560.74 623.59 597.02 641.73
  C 605.68 646.06 613.62 650.62 621.85 655.16
  Q 641.38 665.91 662.65 670.13
  Z
  M 710.43 669.49
  C 725.12 667.49 739.82 661.21 752.17 654.15
  Q 766.03 646.23 777.18 640.68
  C 801.10 628.80 826.33 616.26 852.58 604.62
  Q 878.69 593.05 885.43 590.19
  Q 991.44 545.24 1103.06 517.64
  A 0.57 0.57 0.0 0 0 1103.21 516.60
  Q 1101.56 515.65 1100.48 514.53
  Q 1079.88 493.35 1060.64 472.98
  A 2.01 2.00 -27.8 0 0 1058.74 472.40
  Q 1049.76 474.41 1040.19 476.97
  Q 974.01 494.63 922.87 509.61
  C 882.62 521.41 843.62 536.66 807.62 557.65
  C 779.95 573.79 754.93 594.50 736.37 619.35
  Q 724.46 635.31 715.25 655.13
  C 713.16 659.64 711.68 664.19 710.03 669.00
  A 0.37 0.37 0.0 0 0 710.43 669.49
  Z
  M 215.08 579.97
  L 215.13 1084.31
  A 1.43 1.42 -85.5 0 0 216.33 1085.72
  C 234.86 1088.62 251.79 1092.04 270.63 1096.12
  C 294.21 1101.22 313.72 1106.44 339.27 1112.69
  Q 357.43 1117.14 376.60 1122.84
  Q 420.52 1135.92 455.49 1148.06
  Q 498.56 1163.01 543.02 1181.77
  Q 566.07 1191.49 587.43 1201.75
  A 0.40 0.39 -77.6 0 0 587.99 1201.39
  L 588.13 709.03
  L 588.14 683.29
  A 0.85 0.83 -78.2 0 0 587.65 682.52
  C 570.41 674.66 553.21 665.68 536.09 657.58
  Q 497.69 639.39 453.84 621.26
  Q 430.33 611.54 409.35 603.97
  C 372.72 590.76 342.50 580.30 314.83 572.22
  Q 292.53 565.70 249.68 554.85
  Q 233.42 550.73 216.12 547.74
  A 0.60 0.60 0.0 0 0 215.42 548.32
  L 215.08 579.97
  Z
  M 629.35 735.54
  L 629.14 1225.94
  A 1.53 1.53 0.0 0 0 629.91 1227.27
  Q 649.87 1238.68 672.23 1241.19
  Q 694.71 1243.72 713.49 1239.00
  Q 724.73 1236.17 739.26 1228.58
  Q 740.59 1227.88 740.63 1227.86
  Q 742.81 1226.79 742.79 1225.26
  Q 742.33 1185.01 742.42 1136.92
  C 742.54 1066.23 742.35 1039.62 742.52 964.25
  Q 742.73 872.87 742.68 752.50
  Q 742.68 743.00 742.76 733.44
  L 742.47 704.10
  A 0.70 0.70 0.0 0 0 741.54 703.45
  C 709.10 714.66 675.20 716.58 641.92 706.84
  Q 634.43 704.65 629.90 703.14
  A 0.39 0.39 0.0 0 0 629.39 703.51
  L 629.35 735.54
  Z"
/>
<path fill="#faf0c3" d="
  M 662.65 670.13
  Q 641.38 665.91 621.85 655.16
  C 613.62 650.62 605.68 646.06 597.02 641.73
  Q 560.74 623.59 532.70 610.58
  Q 516.22 602.93 480.80 587.77
  Q 452.18 575.51 428.18 566.71
  Q 375.79 547.50 342.21 537.34
  Q 306.16 526.45 270.05 517.66
  A 0.65 0.65 0.0 0 1 269.74 516.57
  L 312.50 472.70
  A 0.84 0.82 28.8 0 1 313.30 472.48
  Q 341.60 479.51 360.25 484.54
  Q 426.56 502.44 461.63 513.17
  Q 511.74 528.49 557.86 553.67
  Q 572.54 561.68 588.42 573.11
  Q 616.29 593.18 635.63 618.94
  Q 653.00 642.08 662.97 669.76
  A 0.28 0.28 0.0 0 1 662.65 670.13
  Z"
/>
<path fill="#faf0c3" d="
  M 710.43 669.49
  A 0.37 0.37 0.0 0 1 710.03 669.00
  C 711.68 664.19 713.16 659.64 715.25 655.13
  Q 724.46 635.31 736.37 619.35
  C 754.93 594.50 779.95 573.79 807.62 557.65
  C 843.62 536.66 882.62 521.41 922.87 509.61
  Q 974.01 494.63 1040.19 476.97
  Q 1049.76 474.41 1058.74 472.40
  A 2.01 2.00 -27.8 0 1 1060.64 472.98
  Q 1079.88 493.35 1100.48 514.53
  Q 1101.56 515.65 1103.21 516.60
  A 0.57 0.57 0.0 0 1 1103.06 517.64
  Q 991.44 545.24 885.43 590.19
  Q 878.69 593.05 852.58 604.62
  C 826.33 616.26 801.10 628.80 777.18 640.68
  Q 766.03 646.23 752.17 654.15
  C 739.82 661.21 725.12 667.49 710.43 669.49
  Z"
/>
<path fill="#f78a10" d="
  M 1198.15 531.54
  Q 1198.09 540.15 1198.40 548.74
  Q 1198.48 550.80 1198.63 552.86
  Q 1198.68 552.73 1198.72 552.52
  A 0.18 0.17 37.8 0 1 1199.05 552.48
  L 1199.48 553.41
  A 2.31 2.29 5.0 0 0 1200.24 554.31
  Q 1200.69 554.44 1201.80 555.20
  Q 1226.98 572.25 1248.13 593.87
  Q 1250.73 596.53 1261.01 607.73
  Q 1266.97 614.21 1271.17 620.00
  C 1277.07 628.13 1283.39 635.40 1286.86 644.88
  Q 1287.49 646.60 1289.80 649.70
  Q 1268.73 644.32 1263.01 643.91
  Q 1253.70 643.24 1244.47 642.39
  A 0.72 0.71 -10.4 0 0 1243.76 643.41
  C 1245.31 646.62 1246.50 649.94 1248.20 653.13
  Q 1257.66 670.78 1266.17 693.81
  Q 1273.04 712.40 1276.78 726.35
  Q 1279.63 736.96 1282.73 753.51
  C 1286.97 776.09 1288.39 797.31 1288.01 821.00
  Q 1287.96 824.64 1287.27 826.98
  A 0.94 0.94 0.0 0 1 1285.77 827.44
  Q 1268.50 813.03 1248.11 801.90
  Q 1231.98 793.09 1229.03 791.65
  A 0.70 0.70 0.0 0 0 1228.03 792.36
  Q 1229.07 800.72 1229.21 813.28
  C 1229.44 833.73 1228.59 854.83 1225.10 873.37
  Q 1220.23 899.17 1211.71 922.47
  Q 1209.03 929.81 1200.74 948.77
  A 1.01 0.98 -5.6 0 1 1200.42 949.15
  L 1200.11 949.35
  A 0.03 0.02 -31.7 0 0 1200.10 949.37
  Q 1199.47 951.79 1197.87 953.83
  L 1198.15 531.54
  Z"
/>
<path fill="#77d1ea" d="
  M 588.13 709.03
  L 587.99 714.99
  A 0.75 0.74 13.6 0 1 586.92 715.64
  C 570.80 707.91 555.91 699.18 540.10 691.97
  Q 496.30 672.00 481.63 665.66
  Q 444.02 649.42 403.13 634.23
  C 382.18 626.45 358.34 618.61 339.42 612.39
  Q 300.64 599.64 243.70 585.28
  Q 238.06 583.86 222.63 580.82
  C 220.21 580.35 217.62 580.27 215.08 579.97
  L 215.42 548.32
  A 0.60 0.60 0.0 0 1 216.12 547.74
  Q 233.42 550.73 249.68 554.85
  Q 292.53 565.70 314.83 572.22
  C 342.50 580.30 372.72 590.76 409.35 603.97
  Q 430.33 611.54 453.84 621.26
  Q 497.69 639.39 536.09 657.58
  C 553.21 665.68 570.41 674.66 587.65 682.52
  A 0.85 0.83 -78.2 0 1 588.14 683.29
  L 588.13 709.03
  Z"
/>
<path fill="#96dc80" d="
  M 1156.80 574.43
  Q 1156.22 576.45 1156.39 578.62
  A 1.34 1.33 -7.8 0 1 1155.31 580.03
  Q 1128.90 585.21 1104.21 591.75
  Q 1047.58 606.77 994.58 625.27
  C 979.62 630.49 960.39 637.98 946.68 642.91
  C 929.79 648.98 914.84 655.71 894.18 664.21
  Q 885.05 667.96 863.36 678.07
  C 844.67 686.77 830.67 692.49 814.57 700.89
  Q 803.20 706.83 786.14 715.11
  A 1.33 1.33 0.0 0 1 784.24 714.12
  L 784.07 713.03
  L 783.85 684.20
  A 1.57 1.54 77.5 0 1 784.73 682.79
  C 798.23 676.29 811.19 669.28 826.17 662.25
  Q 865.12 643.99 873.65 640.17
  Q 892.16 631.90 926.31 618.04
  Q 954.73 606.51 979.15 597.95
  Q 1005.75 588.64 1032.68 579.76
  C 1061.46 570.28 1090.36 562.93 1120.44 555.44
  Q 1136.68 551.40 1152.04 548.33
  Q 1154.37 547.87 1156.00 548.09
  A 0.67 0.67 0.0 0 1 1156.58 548.74
  L 1156.80 574.43
  Z"
/>
<path fill="#f78a10" d="
  M 174.13 554.96
  L 174.09 952.06
  Q 172.87 951.46 172.18 950.03
  Q 161.58 928.01 155.22 905.85
  C 150.48 889.31 146.41 873.12 144.67 856.77
  Q 141.27 824.96 144.13 792.87
  A 0.62 0.62 0.0 0 0 143.33 792.22
  Q 142.14 792.58 139.95 793.70
  C 127.35 800.17 112.51 808.07 99.70 817.41
  Q 95.05 820.80 85.67 827.35
  A 0.56 0.56 0.0 0 1 84.79 826.92
  Q 82.73 792.93 88.17 759.72
  Q 93.97 724.29 108.05 687.85
  Q 114.82 670.30 116.72 666.73
  Q 121.28 658.17 128.53 643.22
  A 0.52 0.52 0.0 0 0 128.04 642.48
  Q 109.04 643.07 90.00 647.83
  Q 86.44 648.73 82.33 649.63
  Q 85.26 641.27 91.61 632.59
  Q 104.69 614.73 107.07 612.08
  Q 123.77 593.42 132.26 585.74
  Q 142.27 576.66 155.53 566.29
  Q 162.72 560.66 169.48 556.37
  A 2.96 2.84 19.6 0 1 170.28 556.01
  L 174.13 554.96
  Z"
/>
<path fill="#4aae77" d="
  M 1156.80 574.43
  L 1156.83 1084.58
  A 1.13 1.12 85.2 0 1 1155.90 1085.69
  C 1145.82 1087.35 1134.29 1089.17 1123.78 1091.40
  Q 1112.21 1093.86 1093.98 1097.48
  C 1089.64 1098.34 1085.12 1099.78 1080.67 1100.79
  Q 1078.84 1101.21 1072.47 1102.77
  Q 1068.24 1103.81 1064.14 1104.07
  Q 1061.10 1097.80 1058.52 1092.71
  Q 1057.93 1091.54 1056.34 1086.69
  C 1053.55 1078.12 1053.00 1068.23 1052.98 1058.50
  Q 1052.94 1040.01 1056.03 1022.27
  Q 1057.35 1014.66 1057.94 1009.18
  Q 1059.29 996.65 1059.33 996.00
  Q 1059.80 986.91 1059.39 977.83
  C 1058.70 962.58 1054.49 948.56 1047.99 935.73
  Q 1043.99 927.86 1036.86 920.52
  Q 1010.16 893.05 969.26 894.93
  Q 951.23 895.76 937.08 902.64
  Q 935.60 903.36 934.49 904.08
  Q 934.05 904.37 932.21 905.03
  A 2.43 2.38 13.3 0 0 931.33 905.56
  Q 929.67 907.13 926.59 908.42
  Q 926.13 908.62 925.62 909.24
  Q 924.75 910.32 922.87 911.06
  A 1.98 1.96 -78.0 0 0 922.20 911.50
  L 920.84 912.90
  A 1.92 1.74 -81.5 0 1 920.56 913.13
  Q 914.43 917.19 912.43 919.19
  Q 907.68 923.94 897.21 934.71
  A 2.82 2.65 81.9 0 0 896.73 935.39
  Q 895.41 938.01 893.29 939.39
  A 2.14 2.06 -2.8 0 0 892.65 940.07
  Q 891.73 941.70 890.66 942.01
  Q 882.33 947.50 877.57 953.29
  C 872.20 959.82 866.33 966.04 861.85 972.22
  Q 850.10 988.43 845.96 995.69
  Q 832.79 1018.78 824.08 1050.67
  C 821.83 1058.89 820.17 1070.09 819.28 1076.24
  Q 813.72 1114.41 819.52 1151.90
  C 820.93 1161.01 823.89 1173.23 826.05 1181.02
  Q 826.44 1182.43 825.26 1183.42
  Q 818.71 1186.07 812.15 1188.85
  C 802.48 1192.93 794.01 1197.42 784.78 1201.34
  A 0.54 0.53 -11.6 0 1 784.03 1200.85
  Q 783.85 961.25 783.68 722.00
  Q 783.68 717.52 784.07 713.03
  L 784.24 714.12
  A 1.33 1.33 0.0 0 0 786.14 715.11
  Q 803.20 706.83 814.57 700.89
  C 830.67 692.49 844.67 686.77 863.36 678.07
  Q 885.05 667.96 894.18 664.21
  C 914.84 655.71 929.79 648.98 946.68 642.91
  C 960.39 637.98 979.62 630.49 994.58 625.27
  Q 1047.58 606.77 1104.21 591.75
  Q 1128.90 585.21 1155.31 580.03
  A 1.34 1.33 -7.8 0 0 1156.39 578.62
  Q 1156.22 576.45 1156.80 574.43
  Z"
/>
<path fill="#3a9cc6" d="
  M 215.08 579.97
  C 217.62 580.27 220.21 580.35 222.63 580.82
  Q 238.06 583.86 243.70 585.28
  Q 300.64 599.64 339.42 612.39
  C 358.34 618.61 382.18 626.45 403.13 634.23
  Q 444.02 649.42 481.63 665.66
  Q 496.30 672.00 540.10 691.97
  C 555.91 699.18 570.80 707.91 586.92 715.64
  A 0.75 0.74 13.6 0 0 587.99 714.99
  L 588.13 709.03
  L 587.99 1201.39
  A 0.40 0.39 -77.6 0 1 587.43 1201.75
  Q 566.07 1191.49 543.02 1181.77
  Q 498.56 1163.01 455.49 1148.06
  Q 420.52 1135.92 376.60 1122.84
  Q 357.43 1117.14 339.27 1112.69
  C 313.72 1106.44 294.21 1101.22 270.63 1096.12
  C 251.79 1092.04 234.86 1088.62 216.33 1085.72
  A 1.43 1.42 -85.5 0 1 215.13 1084.31
  L 215.08 579.97
  Z"
/>
<path fill="#96dc80" d="
  M 742.76 733.44
  Q 742.32 735.29 741.33 735.61
  C 725.43 740.71 707.60 745.04 690.59 745.42
  Q 674.77 745.77 666.75 744.59
  Q 653.63 742.65 629.35 735.54
  L 629.39 703.51
  A 0.39 0.39 0.0 0 1 629.90 703.14
  Q 634.43 704.65 641.92 706.84
  C 675.20 716.58 709.10 714.66 741.54 703.45
  A 0.70 0.70 0.0 0 1 742.47 704.10
  L 742.76 733.44
  Z"
/>
<path fill="#4aae77" d="
  M 742.76 733.44
  Q 742.68 743.00 742.68 752.50
  Q 742.73 872.87 742.52 964.25
  C 742.35 1039.62 742.54 1066.23 742.42 1136.92
  Q 742.33 1185.01 742.79 1225.26
  Q 742.81 1226.79 740.63 1227.86
  Q 740.59 1227.88 739.26 1228.58
  Q 724.73 1236.17 713.49 1239.00
  Q 694.71 1243.72 672.23 1241.19
  Q 649.87 1238.68 629.91 1227.27
  A 1.53 1.53 0.0 0 1 629.14 1225.94
  L 629.35 735.54
  Q 653.63 742.65 666.75 744.59
  Q 674.77 745.77 690.59 745.42
  C 707.60 745.04 725.43 740.71 741.33 735.61
  Q 742.32 735.29 742.76 733.44
  Z"
/>
<path fill="#f78a10" d="
  M 1269.12 868.28
  Q 1268.11 868.23 1267.59 867.40
  A 0.23 0.23 0.0 0 0 1267.29 867.31
  Q 1267.14 867.38 1267.13 867.66
  Q 1267.12 867.70 1267.22 867.85
  Q 1267.65 868.53 1266.70 868.95
  Q 1266.16 867.87 1266.37 866.71
  A 0.77 0.76 21.6 0 1 1267.54 866.21
  Q 1269.34 867.38 1269.12 868.28
  Z"
/>
<path fill="#f78a10" d="
  M 1266.17 872.88
  L 1265.80 877.56
  Q 1264.21 875.88 1266.17 872.88
  Z"
/>
<path fill="#faf0c3" d="
  M 1015.71 1090.31
  Q 1016.56 1092.35 1015.35 1093.60
  C 1003.79 1105.59 987.02 1114.10 970.16 1117.83
  Q 965.16 1118.94 958.27 1119.01
  Q 948.48 1119.10 946.28 1118.83
  Q 925.95 1116.35 907.07 1107.35
  Q 904.43 1099.52 903.04 1090.91
  Q 898.64 1063.78 901.68 1035.57
  Q 903.73 1016.49 909.45 1000.89
  Q 915.75 983.69 924.81 968.78
  Q 934.41 952.97 949.78 943.04
  Q 958.46 937.42 968.49 936.69
  C 978.93 935.93 988.89 937.43 997.81 942.73
  Q 1013.54 952.05 1016.76 969.75
  C 1019.61 985.38 1017.40 1000.97 1015.06 1016.20
  Q 1011.55 1039.09 1011.09 1049.01
  Q 1010.20 1067.77 1015.71 1090.31
  Z"
/>
<path fill="#208481" d="
  M 890.66 942.01
  Q 890.30 945.09 888.64 947.98
  Q 886.94 950.93 886.88 951.04
  Q 882.82 958.91 878.26 966.47
  Q 875.81 970.23 874.18 974.42
  C 872.63 978.38 870.10 981.76 869.37 985.27
  Q 869.12 986.44 869.80 986.90
  Q 869.87 986.95 869.88 986.93
  A 0.02 0.02 0.0 0 1 869.92 986.93
  L 870.03 987.51
  Q 869.63 988.28 869.14 991.00
  Q 869.02 991.69 867.38 995.30
  A 4.51 4.30 -28.3 0 0 867.07 996.25
  Q 866.45 999.22 865.50 1002.26
  Q 864.70 1004.85 864.03 1008.30
  Q 860.54 1026.49 859.58 1035.75
  Q 857.09 1059.70 860.18 1086.18
  Q 861.37 1096.30 864.10 1107.60
  Q 867.21 1120.44 869.86 1128.62
  Q 874.00 1141.38 876.85 1146.16
  Q 879.09 1149.90 882.82 1157.41
  Q 883.12 1158.01 883.03 1158.51
  L 881.98 1158.09
  A 0.51 0.50 22.1 0 0 881.33 1158.36
  L 880.61 1160.07
  A 1.51 1.51 0.0 0 1 879.93 1160.81
  C 870.40 1165.76 861.27 1168.93 846.02 1174.70
  Q 843.61 1175.61 835.73 1179.26
  Q 830.61 1181.62 825.26 1183.42
  Q 826.44 1182.43 826.05 1181.02
  C 823.89 1173.23 820.93 1161.01 819.52 1151.90
  Q 813.72 1114.41 819.28 1076.24
  C 820.17 1070.09 821.83 1058.89 824.08 1050.67
  Q 832.79 1018.78 845.96 995.69
  Q 850.10 988.43 861.85 972.22
  C 866.33 966.04 872.20 959.82 877.57 953.29
  Q 882.33 947.50 890.66 942.01
  Z"
/>
<path fill="#4aae77" d="
  M 878.26 966.47
  L 874.77 975.37
  A 0.23 0.22 -66.5 0 0 874.88 975.66
  L 874.89 975.66
  A 0.33 0.31 -72.7 0 0 875.18 975.50
  L 876.66 972.96
  A 0.04 0.04 0.0 0 1 876.74 972.99
  Q 876.56 973.58 875.18 977.00
  Q 874.79 977.97 874.39 978.16
  A 1.35 0.11 -23.9 0 0 873.55 978.62
  C 873.11 979.00 872.74 980.24 871.87 980.55
  Q 871.49 980.68 871.11 981.36
  A 0.56 0.37 26.0 0 0 871.46 981.95
  Q 871.79 982.10 871.81 982.79
  Q 871.89 985.67 870.03 987.51
  L 869.92 986.93
  A 0.02 0.02 0.0 0 0 869.88 986.93
  Q 869.87 986.95 869.80 986.90
  Q 869.12 986.44 869.37 985.27
  C 870.10 981.76 872.63 978.38 874.18 974.42
  Q 875.81 970.23 878.26 966.47
  Z"
/>
<path fill="#f9ba1a" d="
  M 907.07 1107.35
  Q 925.95 1116.35 946.28 1118.83
  Q 948.48 1119.10 958.27 1119.01
  Q 965.16 1118.94 970.16 1117.83
  C 987.02 1114.10 1003.79 1105.59 1015.35 1093.60
  Q 1016.56 1092.35 1015.71 1090.31
  Q 1016.08 1090.63 1016.20 1091.33
  A 0.63 0.63 0.0 0 0 1016.69 1091.84
  Q 1016.70 1091.84 1016.80 1091.83
  A 0.30 0.29 -10.0 0 1 1017.12 1092.05
  Q 1017.40 1093.21 1017.36 1094.12
  A 2.81 2.76 37.8 0 0 1017.49 1095.08
  C 1022.77 1111.71 1033.81 1126.05 1047.61 1137.06
  Q 1060.66 1147.47 1076.68 1151.52
  Q 1094.47 1156.01 1111.40 1153.49
  C 1122.80 1151.80 1135.51 1146.94 1145.60 1141.10
  Q 1151.87 1137.49 1159.92 1129.82
  Q 1159.95 1129.79 1159.98 1129.76
  L 1163.98 1126.80
  L 1196.81 1120.67
  A 1.29 1.29 0.0 0 0 1197.86 1119.40
  L 1197.92 1055.21
  Q 1197.85 1045.99 1197.91 1036.77
  Q 1197.92 1035.19 1199.92 1033.73
  A 3.34 3.22 -2.3 0 0 1200.78 1032.83
  Q 1208.93 1020.26 1210.88 1017.14
  Q 1222.85 997.92 1230.66 983.44
  A 0.65 0.64 -52.1 0 1 1231.70 983.31
  Q 1233.55 985.34 1234.99 988.24
  Q 1241.11 1000.50 1246.06 1014.41
  C 1253.46 1035.20 1255.42 1056.92 1253.70 1079.77
  Q 1252.58 1094.66 1248.19 1108.98
  C 1239.51 1137.28 1223.72 1163.82 1200.99 1183.27
  C 1175.57 1205.02 1144.48 1219.56 1111.25 1224.49
  Q 1058.25 1232.36 1008.20 1214.74
  Q 996.16 1210.51 982.02 1202.93
  Q 968.13 1195.49 958.04 1187.10
  C 937.59 1170.11 922.94 1148.97 912.55 1123.99
  Q 908.83 1115.05 907.07 1107.35
  Z"
/>
<path fill="#f78a10" d="
  M 1295.53 1053.78
  Q 1296.73 1065.53 1295.42 1077.07
  Q 1294.62 1065.53 1295.53 1053.78
  Z"
/>
</svg>
